<svg width="43" height="50" viewBox="0 0 43 50" fill="none" xmlns="http://www.w3.org/2000/svg">
<path d="M19.2793 39.3087C19.2793 42.8691 18.4612 45.5432 16.84 47.3159C15.2113 49.0961 13.2948 49.99 10.0449 49.99C6.88598 49.99 4.52246 49.1188 2.93921 47.3916C1.36352 45.6644 0.575684 43.0434 0.575684 39.5435V25.7942H5.6815V39.6193C5.6815 41.5813 6.06027 43.0434 6.82538 44.0282C7.59049 45.0054 8.7268 45.4902 10.2192 45.4902C11.7267 45.4902 12.3251 45.0205 13.0675 44.0736C13.8099 43.1267 14.1811 41.7101 14.1811 39.8162V25.7942H19.2717L19.2793 39.3087Z" fill="#0C2D8A"/>
<path d="M41.6874 49.7097H35.8619L31.8924 41.8389C31.8167 41.6949 31.7409 41.4904 31.6652 41.2253C31.597 40.9601 31.5137 40.6344 31.4303 40.2556H31.3697C31.3167 40.4298 31.2485 40.6647 31.1652 40.9374C31.0743 41.2177 30.9682 41.5283 30.8319 41.8843L26.8472 49.7097H20.9915L28.1957 37.7406L21.6051 25.7942H27.5896L30.8925 33.0514C31.0213 33.3241 31.1349 33.6347 31.2561 33.968C31.3697 34.3014 31.4834 34.665 31.5894 35.0513H31.65C31.7258 34.7938 31.8167 34.4983 31.9303 34.1574C32.044 33.8165 32.1879 33.4226 32.3621 32.9832L36.0362 25.7942H41.498L34.7181 37.6497L41.6874 49.7097Z" fill="#0C2D8A"/>
<path d="M42.0661 19.8779V21.5823C42.0661 22.052 41.6722 22.4308 41.1874 22.4308H0.87117C0.386345 22.4308 0 22.052 0 21.5823V19.8779C0 19.4082 0.386345 19.0294 0.87117 19.0294H41.1798C41.6646 19.0294 42.0661 19.4082 42.0661 19.8779Z" fill="#0C2D8A"/>
<path d="M9.31011 11.507C9.0677 11.0676 8.77225 10.6509 8.43136 10.2646C8.09047 9.87826 7.71928 9.61312 7.32536 9.48434V9.45403C8.24955 9.12829 8.96922 8.65104 9.49949 7.99199C10.0222 7.32535 10.2873 6.54509 10.2873 5.63604C10.2873 4.34065 9.87826 3.37857 9.05254 2.73466C8.22683 2.08318 6.99961 1.76501 5.37848 1.76501H0.575684V15.4537H3.53766V10.3252H4.40883C4.80275 10.3555 5.13607 10.5146 5.43908 10.7873C5.73452 11.0676 6.02996 11.4918 6.33298 12.0448L8.1738 15.4537H11.5524L9.31011 11.507ZM6.54509 7.44656C6.13602 7.84805 5.59817 8.05259 4.92396 8.05259H3.53766V4.01491H4.98456C5.7118 4.01491 6.25723 4.18156 6.62084 4.49973C6.98446 4.82547 7.1587 5.29515 7.1587 5.9239C7.1587 6.52993 6.95416 7.03749 6.54509 7.44656Z" fill="#0C2D8A"/>
<path d="M17.6581 15.6659C16.5294 15.6659 15.5597 15.4386 14.7492 14.9765C13.9386 14.5144 13.3174 13.863 12.8781 13.0221C12.4387 12.1736 12.219 11.1737 12.219 10.0222C12.219 8.8935 12.4387 7.90113 12.8781 7.05268C13.3174 6.20424 13.931 5.5376 14.734 5.06035C15.5294 4.5831 16.4688 4.34827 17.5445 4.34827C18.2717 4.34827 18.9459 4.4619 19.5671 4.69673C20.1959 4.93157 20.7413 5.27246 21.211 5.73456C21.6807 6.19666 22.0443 6.77239 22.3094 7.46933C22.5746 8.16626 22.7033 8.98441 22.7033 9.91618V10.7495H13.4311V8.8632H19.8247C19.8247 8.42383 19.7262 8.03748 19.5368 7.69659C19.3474 7.3557 19.0823 7.09056 18.749 6.90117C18.4157 6.71179 18.0217 6.61331 17.5824 6.61331C17.1203 6.61331 16.7112 6.71936 16.3552 6.93147C15.9991 7.14359 15.7264 7.42388 15.5219 7.77992C15.3173 8.13596 15.2188 8.52988 15.2188 8.96168V10.757C15.2188 11.3025 15.3173 11.7721 15.5219 12.1661C15.7264 12.56 16.0067 12.863 16.3779 13.0827C16.7491 13.2948 17.1885 13.4009 17.696 13.4009C18.0369 13.4009 18.3399 13.3554 18.6202 13.2569C18.9005 13.1584 19.1429 13.0221 19.3399 12.8251C19.5368 12.6357 19.6883 12.4009 19.7944 12.1282L22.6049 12.3176C22.4609 12.9918 22.1731 13.5827 21.7337 14.0826C21.2943 14.5826 20.7262 14.9765 20.0368 15.2568C19.355 15.5295 18.5596 15.6659 17.6581 15.6659Z" fill="#0C2D8A"/>
<path d="M29.2561 15.6356C28.4228 15.6356 27.6728 15.4235 26.9986 14.9917C26.3244 14.5599 25.7941 13.9235 25.4002 13.0827C25.0063 12.2418 24.8093 11.2115 24.8093 9.9919C24.8093 8.73438 25.0139 7.68898 25.4154 6.85569C25.8169 6.02239 26.3547 5.39364 27.0289 4.97699C27.7031 4.56034 28.4379 4.35581 29.2485 4.35581C29.8621 4.35581 30.3772 4.46186 30.7863 4.6664C31.1954 4.87093 31.5287 5.1285 31.7863 5.43909C32.0438 5.74968 32.2332 6.04512 32.3696 6.34056H32.4605V0.833252H35.4906V15.4538H32.4908V13.6963H32.362C32.2181 13.9993 32.0211 14.3023 31.756 14.5977C31.4984 14.8932 31.1651 15.1432 30.7484 15.3401C30.3469 15.5371 29.847 15.6356 29.2561 15.6356ZM30.2182 13.2114C30.7106 13.2114 31.1272 13.0751 31.4605 12.8099C31.8014 12.5448 32.059 12.166 32.2484 11.6812C32.4302 11.1964 32.5211 10.6282 32.5211 9.97675C32.5211 9.32526 32.4302 8.75711 32.2484 8.27986C32.0665 7.80261 31.809 7.43142 31.4605 7.16628C31.1196 6.90114 30.703 6.77236 30.2106 6.77236C29.7106 6.77236 29.294 6.90871 28.9455 7.18143C28.6046 7.45414 28.347 7.82534 28.1652 8.31016C27.991 8.78741 27.9001 9.34799 27.9001 9.97675C27.9001 10.6131 27.991 11.1737 28.1652 11.6661C28.3395 12.1585 28.6046 12.5372 28.9455 12.8099C29.2864 13.0827 29.7182 13.2114 30.2182 13.2114Z" fill="#0C2D8A"/>
<path d="M39.8389 3.07561C39.3844 3.07561 38.9981 2.9241 38.6799 2.62866C38.3617 2.33322 38.1951 1.9696 38.1951 1.54538C38.1951 1.12116 38.3542 0.757539 38.6799 0.454523C39.0056 0.151508 39.392 0 39.8389 0C40.2935 0 40.6798 0.151508 40.998 0.446948C41.3161 0.749964 41.4828 1.10601 41.4828 1.53023C41.4828 1.95445 41.3237 2.31807 40.998 2.62109C40.6798 2.9241 40.2935 3.07561 39.8389 3.07561ZM38.3163 15.4538V4.49221H41.354V15.4538H38.3163Z" fill="#0C2D8A"/>
</svg>
