<svg width="45" height="60" viewBox="0 0 45 60" fill="none" xmlns="http://www.w3.org/2000/svg">
<path fill-rule="evenodd" clip-rule="evenodd" d="M0 7.5C0 5.5109 0.7902 3.6032 2.1967 2.1967C3.603 0.7902 5.511 0 7.5 0H27.349C28.343 0.0002 29.297 0.3954 30 1.0988L43.901 15C44.605 15.7031 45 16.6568 45 17.6512V52.5C45 54.4891 44.21 56.3968 42.803 57.8033C41.397 59.2098 39.489 60 37.5 60H7.5C5.511 60 3.603 59.2098 2.1967 57.8033C0.7902 56.3968 0 54.4891 0 52.5V7.5ZM26.25 15L28.125 5.625L39.375 16.875L30 18.75C29.005 18.75 28.052 18.3549 27.348 17.6516C26.645 16.9484 26.25 15.9946 26.25 15ZM16.875 20.625C16.875 20.1277 16.677 19.6508 16.326 19.2992C15.974 18.9475 15.497 18.75 15 18.75C14.503 18.75 14.026 18.9475 13.674 19.2992C13.323 19.6508 13.125 20.1277 13.125 20.625V23.0025L11.066 21.8137C10.853 21.6887 10.617 21.6071 10.372 21.5736C10.127 21.5401 9.878 21.5554 9.639 21.6186C9.4 21.6818 9.175 21.7916 8.979 21.9418C8.783 22.092 8.618 22.2796 8.494 22.4938C8.371 22.7079 8.29 22.9444 8.259 23.1896C8.227 23.4348 8.244 23.6839 8.308 23.9225C8.373 24.1612 8.485 24.3846 8.636 24.5801C8.788 24.7755 8.976 24.939 9.191 25.0613L11.25 26.25L9.191 27.4387C8.976 27.561 8.788 27.7245 8.636 27.9199C8.485 28.1154 8.373 28.3388 8.308 28.5775C8.244 28.8161 8.227 29.0652 8.259 29.3104C8.29 29.5556 8.371 29.7921 8.494 30.0062C8.618 30.2204 8.783 30.408 8.979 30.5582C9.175 30.7084 9.4 30.8182 9.639 30.8814C9.878 30.9446 10.127 30.9599 10.372 30.9264C10.617 30.8929 10.853 30.8113 11.066 30.6862L13.125 29.4975V31.875C13.125 32.3723 13.323 32.8492 13.674 33.2008C14.026 33.5525 14.503 33.75 15 33.75C15.497 33.75 15.974 33.5525 16.326 33.2008C16.677 32.8492 16.875 32.3723 16.875 31.875V29.4975L18.934 30.6862C19.147 30.8113 19.383 30.8929 19.628 30.9264C19.873 30.9599 20.122 30.9446 20.361 30.8814C20.6 30.8182 20.825 30.7084 21.021 30.5582C21.217 30.408 21.382 30.2204 21.506 30.0062C21.629 29.7921 21.71 29.5556 21.741 29.3104C21.773 29.0652 21.756 28.8161 21.692 28.5775C21.627 28.3388 21.515 28.1154 21.364 27.9199C21.212 27.7245 21.024 27.561 20.809 27.4387L18.75 26.25L20.809 25.0613C21.024 24.939 21.212 24.7755 21.364 24.5801C21.515 24.3846 21.627 24.1612 21.692 23.9225C21.756 23.6839 21.773 23.4348 21.741 23.1896C21.71 22.9444 21.629 22.7079 21.506 22.4938C21.382 22.2796 21.217 22.092 21.021 21.9418C20.825 21.7916 20.6 21.6818 20.361 21.6186C20.122 21.5554 19.873 21.5401 19.628 21.5736C19.383 21.6071 19.147 21.6887 18.934 21.8137L16.875 23.0025V20.625ZM9.375 37.5C8.878 37.5 8.401 37.6975 8.049 38.0492C7.698 38.4008 7.5 38.8777 7.5 39.375C7.5 39.8723 7.698 40.3492 8.049 40.7008C8.401 41.0525 8.878 41.25 9.375 41.25H28.125C28.622 41.25 29.099 41.0525 29.451 40.7008C29.802 40.3492 30 39.8723 30 39.375C30 38.8777 29.802 38.4008 29.451 38.0492C29.099 37.6975 28.622 37.5 28.125 37.5H9.375ZM9.375 45C8.878 45 8.401 45.1975 8.049 45.5492C7.698 45.9008 7.5 46.3777 7.5 46.875C7.5 47.3723 7.698 47.8492 8.049 48.2008C8.401 48.5525 8.878 48.75 9.375 48.75H28.125C28.622 48.75 29.099 48.5525 29.451 48.2008C29.802 47.8492 30 47.3723 30 46.875C30 46.3777 29.802 45.9008 29.451 45.5492C29.099 45.1975 28.622 45 28.125 45H9.375Z" fill="#6489D1"/>
</svg>
