<svg width="90" height="90" viewBox="0 0 90 90" fill="none" xmlns="http://www.w3.org/2000/svg">
<g clip-path="url(#clip0_546_4701)">
<path d="M80 90H10C4.48 90 0 85.52 0 80V10C0 4.48 4.48 0 10 0H80C85.52 0 90 4.48 90 10V80C90 85.52 85.52 90 80 90Z" fill="#0C2D8A"/>
<path d="M42.45 63.89C42.45 68.59 41.37 72.12 39.23 74.46C37.08 76.81 34.55 77.99 30.26 77.99C26.09 77.99 22.97 76.84 20.88 74.56C18.8 72.28 17.76 68.82 17.76 64.2V46.05H24.5V64.3C24.5 66.89 25 68.82 26.01 70.12C27.02 71.41 28.52 72.05 30.49 72.05C32.48 72.05 33.27 71.43 34.25 70.18C35.23 68.93 35.72 67.06 35.72 64.56V46.05H42.44L42.45 63.89Z" fill="#F9F9F7"/>
<path d="M72.03 77.62H64.34L59.1 67.23C59 67.04 58.9 66.77 58.8 66.42C58.71 66.07 58.6 65.64 58.49 65.14H58.41C58.34 65.37 58.25 65.68 58.14 66.04C58.02 66.41 57.88 66.82 57.7 67.29L52.44 77.62H44.71L54.22 61.82L45.52 46.05H53.42L57.78 55.63C57.95 55.99 58.1 56.4 58.26 56.84C58.41 57.28 58.56 57.76 58.7 58.27H58.78C58.88 57.93 59 57.54 59.15 57.09C59.3 56.64 59.49 56.12 59.72 55.54L64.57 46.05H71.78L62.83 61.7L72.03 77.62Z" fill="#F9F9F7"/>
<path d="M72.53 38.24V40.49C72.53 41.11 72.01 41.61 71.37 41.61H18.15C17.51 41.61 17 41.11 17 40.49V38.24C17 37.62 17.51 37.12 18.15 37.12H71.36C72 37.12 72.53 37.62 72.53 38.24Z" fill="#6489D1"/>
<path d="M29.29 27.19C28.97 26.61 28.58 26.06 28.13 25.55C27.68 25.04 27.19 24.69 26.67 24.52V24.48C27.89 24.05 28.84 23.42 29.54 22.55C30.23 21.67 30.58 20.64 30.58 19.44C30.58 17.73 30.04 16.46 28.95 15.61C27.86 14.75 26.24 14.33 24.1 14.33H17.76V32.4H21.67V25.63H22.82C23.34 25.67 23.78 25.88 24.18 26.24C24.57 26.61 24.96 27.17 25.36 27.9L27.79 32.4H32.25L29.29 27.19ZM25.64 21.83C25.1 22.36 24.39 22.63 23.5 22.63H21.67V17.3H23.58C24.54 17.3 25.26 17.52 25.74 17.94C26.22 18.37 26.45 18.99 26.45 19.82C26.45 20.62 26.18 21.29 25.64 21.83Z" fill="#6489D1"/>
<path d="M40.31 32.68C38.82 32.68 37.54 32.38 36.47 31.77C35.4 31.16 34.58 30.3 34 29.19C33.42 28.07 33.13 26.75 33.13 25.23C33.13 23.74 33.42 22.43 34 21.31C34.58 20.19 35.39 19.31 36.45 18.68C37.5 18.05 38.74 17.74 40.16 17.74C41.12 17.74 42.01 17.89 42.83 18.2C43.66 18.51 44.38 18.96 45 19.57C45.62 20.18 46.1 20.94 46.45 21.86C46.8 22.78 46.97 23.86 46.97 25.09V26.19H34.73V23.7H43.17C43.17 23.12 43.04 22.61 42.79 22.16C42.54 21.71 42.19 21.36 41.75 21.11C41.31 20.86 40.79 20.73 40.21 20.73C39.6 20.73 39.06 20.87 38.59 21.15C38.12 21.43 37.76 21.8 37.49 22.27C37.22 22.74 37.09 23.26 37.09 23.83V26.2C37.09 26.92 37.22 27.54 37.49 28.06C37.76 28.58 38.13 28.98 38.62 29.27C39.11 29.55 39.69 29.69 40.36 29.69C40.81 29.69 41.21 29.63 41.58 29.5C41.95 29.37 42.27 29.19 42.53 28.93C42.79 28.68 42.99 28.37 43.13 28.01L46.84 28.26C46.65 29.15 46.27 29.93 45.69 30.59C45.11 31.25 44.36 31.77 43.45 32.14C42.55 32.5 41.5 32.68 40.31 32.68Z" fill="#6489D1"/>
<path d="M55.62 32.64C54.52 32.64 53.53 32.36 52.64 31.79C51.75 31.22 51.05 30.38 50.53 29.27C50.01 28.16 49.75 26.8 49.75 25.19C49.75 23.53 50.02 22.15 50.55 21.05C51.08 19.95 51.79 19.12 52.68 18.57C53.57 18.02 54.54 17.75 55.61 17.75C56.42 17.75 57.1 17.89 57.64 18.16C58.18 18.43 58.62 18.77 58.96 19.18C59.3 19.59 59.55 19.98 59.73 20.37H59.85V13.1H63.85V32.4H59.89V30.08H59.72C59.53 30.48 59.27 30.88 58.92 31.27C58.58 31.66 58.14 31.99 57.59 32.25C57.06 32.51 56.4 32.64 55.62 32.64ZM56.89 29.44C57.54 29.44 58.09 29.26 58.53 28.91C58.98 28.56 59.32 28.06 59.57 27.42C59.81 26.78 59.93 26.03 59.93 25.17C59.93 24.31 59.81 23.56 59.57 22.93C59.33 22.3 58.99 21.81 58.53 21.46C58.08 21.11 57.53 20.94 56.88 20.94C56.22 20.94 55.67 21.12 55.21 21.48C54.76 21.84 54.42 22.33 54.18 22.97C53.95 23.6 53.83 24.34 53.83 25.17C53.83 26.01 53.95 26.75 54.18 27.4C54.41 28.05 54.76 28.55 55.21 28.91C55.66 29.27 56.23 29.44 56.89 29.44Z" fill="#6489D1"/>
<path d="M69.59 16.06C68.99 16.06 68.48 15.86 68.06 15.47C67.64 15.08 67.42 14.6 67.42 14.04C67.42 13.48 67.63 13 68.06 12.6C68.49 12.2 69 12 69.59 12C70.19 12 70.7 12.2 71.12 12.59C71.54 12.99 71.76 13.46 71.76 14.02C71.76 14.58 71.55 15.06 71.12 15.46C70.7 15.86 70.19 16.06 69.59 16.06ZM67.58 32.4V17.93H71.59V32.4H67.58Z" fill="#6489D1"/>
</g>
<defs>
<clipPath id="clip0_546_4701">
<rect width="90" height="90" fill="white"/>
</clipPath>
</defs>
</svg>
