<svg width="922" height="922" viewBox="0 0 922 922" fill="none" xmlns="http://www.w3.org/2000/svg">
<path d="M122.663 175.622C128.864 168.21 135.647 161.304 142.947 154.97C195.464 109.497 270.459 100.83 335.294 121.224C400.129 141.619 455.634 187.885 500.554 241.804C521.077 266.458 540.587 293.583 568.062 308.649C603.486 328.084 644.515 324.009 682.815 329.726C822.073 350.526 867.454 545.824 772.304 647.465C734.797 687.517 682.446 710.161 632.805 727.071C564.061 750.563 492.145 765.961 420.026 763.084C347.907 760.207 275.309 738.19 217.186 692.44C141.121 632.492 95.39 536.309 76.3415 437.415C66.6974 387.387 63.286 335.313 72.8379 285.248C80.5274 245.012 97.1418 206.067 122.663 175.622Z" fill="#6489D1"/>
<path opacity="0.7" d="M682.815 329.726C644.515 324.009 603.523 328.085 568.063 308.649C540.587 293.583 521.078 266.458 500.554 241.804C455.634 187.885 400.148 141.619 335.295 121.225C270.441 100.83 195.464 109.497 142.928 154.896C135.629 161.23 128.846 168.136 122.644 175.549C97.1235 205.993 80.5091 244.939 72.8565 285.175C63.3045 335.239 66.7159 387.314 76.3601 437.342C95.3901 536.309 141.121 632.492 217.223 692.441C275.309 738.19 347.889 760.208 420.063 763.084C492.237 765.961 564.098 750.563 632.842 727.071C682.483 710.106 734.834 687.517 772.341 647.465C867.454 545.824 822.074 350.526 682.815 329.726Z" fill="#F9F9F7"/>
<path d="M463.858 220.893V227.347" stroke="#6489D1" stroke-width="3" stroke-linejoin="round"/>
<path d="M463.858 241.527V262.788" stroke="#6489D1" stroke-width="3" stroke-linejoin="round" stroke-dasharray="7.68 7.68"/>
<path d="M463.858 269.869V276.323H457.404" stroke="#6489D1" stroke-width="3" stroke-linejoin="round"/>
<path d="M444.367 276.323H242.339" stroke="#6489D1" stroke-width="3" stroke-linejoin="round" stroke-dasharray="7.07 7.07"/>
<path d="M235.829 276.323H229.375V282.777" stroke="#6489D1" stroke-width="3" stroke-linejoin="round"/>
<path d="M229.375 293.362V309.239" stroke="#6489D1" stroke-width="3" stroke-linejoin="round" stroke-dasharray="5.74 5.74"/>
<path d="M229.375 314.531V320.985" stroke="#6489D1" stroke-width="3" stroke-linejoin="round"/>
<path d="M262.143 251.54H288.346" stroke="#212529" stroke-linecap="round" stroke-linejoin="round"/>
<path d="M267.915 188.567C262.665 191.055 258.516 195.391 256.264 200.747C254.012 206.102 253.814 212.1 255.707 217.592C255.283 217.592 254.859 217.592 254.417 217.592C252.136 217.517 249.863 217.901 247.733 218.722C245.604 219.543 243.661 220.784 242.021 222.371C240.381 223.958 239.077 225.859 238.186 227.96C237.295 230.062 236.836 232.321 236.836 234.603C236.836 236.885 237.295 239.144 238.186 241.245C239.077 243.347 240.381 245.247 242.021 246.834C243.661 248.421 245.604 249.662 247.733 250.483C249.863 251.304 252.136 251.689 254.417 251.614" stroke="#212529" stroke-linecap="round" stroke-linejoin="round"/>
<path d="M319.528 168.689C311.736 166.238 303.322 166.661 295.815 169.881C288.307 173.102 282.203 178.908 278.61 186.244H278.057" stroke="#212529" stroke-linecap="round" stroke-linejoin="round"/>
<path d="M347.262 196.423C345.849 196.424 344.437 196.529 343.039 196.736C341.907 188.037 337.461 180.111 330.629 174.608" stroke="#212529" stroke-linecap="round" stroke-linejoin="round"/>
<path d="M304.795 251.54H347.207C350.834 251.555 354.428 250.853 357.783 249.475C361.139 248.097 364.189 246.07 366.759 243.51C369.329 240.951 371.368 237.909 372.759 234.559C374.15 231.209 374.867 227.618 374.867 223.991" stroke="#212529" stroke-linecap="round" stroke-linejoin="round"/>
<path d="M592.569 253.071H610.345" stroke="#212529" stroke-linecap="round" stroke-linejoin="round"/>
<path d="M596.479 210.345C593.726 211.639 591.398 213.688 589.765 216.254C588.133 218.82 587.264 221.798 587.259 224.839C587.263 226.608 587.556 228.364 588.125 230.039C587.837 230.02 587.547 230.02 587.259 230.039C584.197 230.039 581.261 231.255 579.096 233.42C576.932 235.585 575.715 238.521 575.715 241.583C575.715 244.644 576.932 247.58 579.096 249.745C581.261 251.91 584.197 253.126 587.259 253.126" stroke="#212529" stroke-linecap="round" stroke-linejoin="round"/>
<path d="M631.496 196.847C629.246 196.143 626.902 195.782 624.544 195.778C620.203 195.779 615.95 197.003 612.271 199.308C608.593 201.614 605.638 204.908 603.744 208.815H603.375" stroke="#212529" stroke-linecap="round" stroke-linejoin="round"/>
<path d="M650.323 215.748C649.361 215.75 648.4 215.818 647.447 215.951C646.685 210.061 643.671 204.694 639.038 200.978" stroke="#212529" stroke-linecap="round" stroke-linejoin="round"/>
<path d="M621.428 253.071H650.25C655.209 253.071 659.965 251.101 663.471 247.594C666.978 244.088 668.948 239.332 668.948 234.373" stroke="#212529" stroke-linecap="round" stroke-linejoin="round"/>
<path d="M525.651 130.758C523.428 130.755 521.209 130.922 519.012 131.256C517.546 119.816 512.42 109.157 504.4 100.869C496.379 92.5805 485.895 87.1073 474.509 85.2658C463.124 83.4242 451.448 85.3129 441.224 90.6501C431 95.9874 422.775 104.487 417.777 114.881C417.482 114.881 417.205 114.881 416.91 114.881C411.002 114.887 405.181 116.304 399.931 119.014C394.681 121.724 390.154 125.648 386.727 130.461C383.3 135.273 381.071 140.835 380.227 146.682C379.383 152.529 379.948 158.494 381.874 164.079C381.21 164.079 380.528 163.969 379.846 163.969C372.754 163.969 365.953 166.786 360.939 171.8C355.925 176.814 353.108 183.615 353.108 190.707C353.108 197.798 355.925 204.599 360.939 209.613C365.953 214.628 372.754 217.445 379.846 217.445H525.725C537.217 217.445 548.24 212.879 556.366 204.752C564.493 196.626 569.059 185.603 569.059 174.111C569.059 162.618 564.493 151.595 556.366 143.469C548.24 135.342 537.217 130.777 525.725 130.777L525.651 130.758Z" fill="#F9F9F7" stroke="#212529" stroke-miterlimit="10"/>
<path d="M464.08 174.645V143.648" stroke="#212529" stroke-linecap="round" stroke-linejoin="round"/>
<path d="M481.284 154.195L464.08 136.991L446.894 154.195" stroke="#212529" stroke-linecap="round" stroke-linejoin="round"/>
<path d="M464.08 181.579V188.567" stroke="#212529" stroke-linecap="round" stroke-linejoin="round"/>
<path d="M464.08 196.736V202.084" stroke="#212529" stroke-linecap="round" stroke-linejoin="round"/>
<path d="M408.815 815.675H372.285C370.243 815.742 368.213 815.345 366.346 814.514C364.48 813.683 362.826 812.44 361.509 810.879C360.193 809.317 359.247 807.477 358.743 805.497C358.24 803.517 358.192 801.449 358.602 799.448L372.746 710.788C373.558 706.333 375.875 702.291 379.308 699.338C382.741 696.385 387.083 694.699 391.61 694.561H503.652" stroke="#212529" stroke-linecap="round" stroke-linejoin="round"/>
<path d="M388.402 669.962H421.225C422.221 669.964 423.194 670.266 424.016 670.828C424.838 671.391 425.472 672.188 425.835 673.115L429.744 683.165H499.263C502.666 683.167 505.984 684.235 508.749 686.219C511.514 688.204 513.588 691.005 514.679 694.229L518.588 694.561C520.63 694.494 522.66 694.891 524.526 695.722C526.393 696.553 528.047 697.796 529.364 699.357C530.68 700.919 531.626 702.759 532.13 704.739C532.633 706.719 532.681 708.787 532.27 710.788L518.164 799.448C517.345 803.9 515.027 807.938 511.595 810.89C508.163 813.842 503.824 815.531 499.3 815.675H429.984" stroke="#212529" stroke-linecap="round" stroke-linejoin="round"/>
<path d="M356.021 738.19V699.466C356.03 695.363 357.592 691.416 360.395 688.419C363.197 685.421 367.03 683.597 371.123 683.313L375.088 673.134C375.449 672.205 376.082 671.406 376.905 670.843C377.727 670.281 378.701 669.98 379.698 669.98" stroke="#212529" stroke-linecap="round" stroke-linejoin="round"/>
<path d="M372.285 815.675C367.972 815.675 363.835 813.961 360.785 810.911C357.735 807.861 356.021 803.724 356.021 799.411V763.416" stroke="#212529" stroke-linecap="round" stroke-linejoin="round"/>
<path d="M720.082 815.675C717.905 815.675 715.818 814.811 714.279 813.272C712.741 811.733 711.876 809.646 711.876 807.469V757.036C711.88 754.966 712.668 752.975 714.081 751.463C715.494 749.951 717.427 749.03 719.492 748.885L721.502 743.759C721.681 743.288 721.999 742.882 722.414 742.596C722.829 742.309 723.321 742.155 723.825 742.155H744.773C745.277 742.155 745.769 742.309 746.184 742.596C746.599 742.882 746.917 743.288 747.096 743.759L749.069 748.83H784.105C785.818 748.825 787.488 749.356 788.884 750.348C790.279 751.34 791.329 752.743 791.887 754.362" fill="#6489D1"/>
<mask id="mask0_240_4833" style="mask-type:luminance" maskUnits="userSpaceOnUse" x="711" y="742" width="81" height="74">
<path d="M720.082 815.675C717.905 815.675 715.818 814.811 714.279 813.272C712.741 811.733 711.876 809.646 711.876 807.469V757.036C711.88 754.966 712.668 752.975 714.081 751.463C715.494 749.951 717.427 749.03 719.492 748.885L721.502 743.759C721.681 743.288 721.999 742.882 722.414 742.596C722.829 742.309 723.321 742.155 723.825 742.155H744.773C745.277 742.155 745.769 742.309 746.184 742.596C746.599 742.882 746.917 743.288 747.096 743.759L749.069 748.83H784.105C785.818 748.825 787.488 749.356 788.884 750.348C790.279 751.34 791.329 752.743 791.887 754.362" fill="white"/>
</mask>
<g mask="url(#mask0_240_4833)">
<path opacity="0.3" d="M720.082 815.675C717.905 815.675 715.818 814.811 714.279 813.272C712.741 811.733 711.876 809.646 711.876 807.469V757.036C711.88 754.966 712.668 752.975 714.081 751.463C715.494 749.951 717.427 749.03 719.492 748.885L721.502 743.759C721.681 743.288 721.999 742.882 722.414 742.596C722.829 742.309 723.321 742.155 723.825 742.155H744.773C745.277 742.155 745.769 742.309 746.184 742.596C746.599 742.882 746.917 743.288 747.096 743.759L749.069 748.83H784.105C785.818 748.825 787.488 749.356 788.884 750.348C790.279 751.34 791.329 752.743 791.887 754.362" fill="#212529"/>
</g>
<path d="M720.206 819.52C718.029 819.52 715.942 818.656 714.403 817.117C712.864 815.578 712 813.491 712 811.315V760.881C712.004 758.812 712.792 756.82 714.205 755.308C715.618 753.796 717.551 752.875 719.615 752.731L721.625 747.604C721.805 747.133 722.123 746.727 722.538 746.441C722.953 746.154 723.445 746.001 723.949 746H744.897C745.401 746.001 745.893 746.154 746.308 746.441C746.723 746.727 747.041 747.133 747.22 747.604L749.193 752.675H784.229C785.941 752.67 787.612 753.201 789.007 754.193C790.403 755.185 791.453 756.589 792.011 758.207" stroke="#212529" stroke-linecap="round" stroke-linejoin="round"/>
<path d="M720.206 819.52H784.266C786.55 819.451 788.741 818.601 790.473 817.111C792.205 815.62 793.373 813.581 793.781 811.333L800.918 766.597C801.128 765.588 801.106 764.544 800.853 763.544C800.601 762.545 800.124 761.615 799.46 760.827C798.796 760.038 797.961 759.411 797.019 758.992C796.077 758.573 795.051 758.374 794.021 758.41H729.96C727.678 758.482 725.489 759.334 723.757 760.824C722.026 762.313 720.857 764.351 720.445 766.597L713.309 811.333C713.099 812.342 713.121 813.386 713.373 814.386C713.626 815.386 714.102 816.315 714.766 817.104C715.431 817.892 716.266 818.52 717.208 818.938C718.15 819.357 719.175 819.556 720.206 819.52Z" fill="#6489D1" stroke="#212529" stroke-linecap="round" stroke-linejoin="round"/>
<path d="M346.838 815.675C344.662 815.675 342.574 814.811 341.036 813.272C339.497 811.733 338.632 809.646 338.632 807.469V757.036C338.632 754.965 339.418 752.971 340.832 751.458C342.246 749.945 344.182 749.026 346.248 748.885L348.239 743.759C348.426 743.289 348.749 742.886 349.166 742.6C349.583 742.314 350.076 742.159 350.581 742.155H371.529C372.033 742.155 372.525 742.309 372.94 742.596C373.355 742.882 373.673 743.288 373.852 743.759L375.826 748.83H410.862C412.574 748.825 414.244 749.356 415.64 750.348C417.035 751.34 418.085 752.743 418.643 754.362" fill="#6489D1"/>
<mask id="mask1_240_4833" style="mask-type:luminance" maskUnits="userSpaceOnUse" x="338" y="742" width="81" height="74">
<path d="M346.838 815.675C344.662 815.675 342.574 814.811 341.036 813.272C339.497 811.733 338.632 809.646 338.632 807.469V757.036C338.632 754.965 339.418 752.971 340.832 751.458C342.246 749.945 344.182 749.026 346.248 748.885L348.239 743.759C348.426 743.289 348.749 742.886 349.166 742.6C349.583 742.314 350.076 742.159 350.581 742.155H371.529C372.033 742.155 372.525 742.309 372.94 742.596C373.355 742.882 373.673 743.288 373.852 743.759L375.826 748.83H410.862C412.574 748.825 414.244 749.356 415.64 750.348C417.035 751.34 418.085 752.743 418.643 754.362" fill="white"/>
</mask>
<g mask="url(#mask1_240_4833)">
<path opacity="0.3" d="M346.838 815.675C344.662 815.675 342.574 814.811 341.036 813.272C339.497 811.733 338.632 809.646 338.632 807.469V757.036C338.632 754.965 339.418 752.971 340.832 751.458C342.246 749.945 344.182 749.026 346.248 748.885L348.239 743.759C348.426 743.289 348.749 742.886 349.166 742.6C349.583 742.314 350.076 742.159 350.581 742.155H371.529C372.033 742.155 372.525 742.309 372.94 742.596C373.355 742.882 373.673 743.288 373.852 743.759L375.826 748.83H410.862C412.574 748.825 414.244 749.356 415.64 750.348C417.035 751.34 418.085 752.743 418.643 754.362" fill="#212529"/>
</g>
<path d="M346.838 815.675C344.662 815.675 342.574 814.811 341.036 813.272C339.497 811.733 338.632 809.646 338.632 807.469V757.036C338.632 754.965 339.418 752.971 340.832 751.458C342.246 749.945 344.182 749.026 346.248 748.885L348.239 743.759C348.426 743.289 348.749 742.886 349.166 742.6C349.583 742.314 350.076 742.159 350.581 742.155H371.529C372.033 742.155 372.525 742.309 372.94 742.596C373.355 742.882 373.673 743.288 373.852 743.759L375.826 748.83H410.862C412.574 748.825 414.244 749.356 415.64 750.348C417.035 751.34 418.085 752.743 418.643 754.362" stroke="#212529" stroke-linecap="round" stroke-linejoin="round"/>
<path d="M346.838 815.675H410.898C413.185 815.61 415.381 814.762 417.116 813.271C418.852 811.781 420.023 809.739 420.432 807.488L427.568 762.752C427.778 761.743 427.756 760.699 427.504 759.699C427.251 758.699 426.775 757.77 426.111 756.982C425.447 756.193 424.612 755.566 423.669 755.147C422.727 754.728 421.702 754.529 420.672 754.565H356.574C354.292 754.64 352.105 755.493 350.374 756.982C348.644 758.471 347.474 760.507 347.059 762.752L339.923 807.488C339.716 808.498 339.741 809.543 339.996 810.542C340.251 811.542 340.729 812.47 341.395 813.259C342.06 814.047 342.896 814.673 343.839 815.092C344.781 815.511 345.807 815.71 346.838 815.675Z" fill="#6489D1" stroke="#212529" stroke-linecap="round" stroke-linejoin="round"/>
<path d="M572.285 789.619C572.285 789.619 575.199 807.377 572.285 815.675H513.517C513.517 815.675 511.028 809.461 513.517 805.551C516.006 801.642 534.631 799.374 540.421 794.082C544.864 789.667 548.883 784.845 552.425 779.68L572.285 789.619Z" fill="#6489D1" stroke="#212529" stroke-linecap="round" stroke-linejoin="round"/>
<path d="M512.411 812.559H573.06L573.576 815.675H512.411V812.559Z" fill="#F9F9F7" stroke="#212529" stroke-linecap="round" stroke-linejoin="round"/>
<path d="M558.16 787.388C558.16 787.388 552.628 788.716 552.001 788.918C551.374 789.121 546.008 797.419 540.624 798.858C535.239 800.296 529.855 800.038 530.685 802.656" stroke="#212529" stroke-linecap="round" stroke-linejoin="round"/>
<path d="M545.916 787.462L552.223 792.109" stroke="#212529" stroke-linecap="round" stroke-linejoin="round"/>
<path d="M543.003 791.519L549.069 795.981" stroke="#212529" stroke-linecap="round" stroke-linejoin="round"/>
<path d="M539.112 795.096L544.386 800.185" stroke="#212529" stroke-linecap="round" stroke-linejoin="round"/>
<path d="M533.801 797.677L536.069 802.73" stroke="#212529" stroke-linecap="round" stroke-linejoin="round"/>
<path d="M573.244 797.677C566.405 797.15 559.531 798.041 553.053 800.296C542.486 803.984 538.854 807.229 539.112 808.207C539.37 809.184 540.624 812.061 540.624 812.061H545.916C545.916 812.061 544.072 808.686 544.386 808.207C544.699 807.727 562.826 800.683 573.244 801.919V797.677Z" fill="#212529"/>
<path d="M671.917 815.675C671.917 815.675 674.166 807.027 671.53 803.836C666.772 798.083 672.101 793.252 667.325 791.242L665.334 793.565C664.946 791.223 666.053 784.05 657.202 783.128C646.506 781.985 646.304 789.785 645.714 792.348L645.898 788.771C641.325 788.771 643.704 793.326 636.77 800.775C634.965 802.786 633.59 805.146 632.73 807.708C631.871 810.271 631.545 812.982 631.773 815.675H671.917Z" fill="#6489D1" stroke="#212529" stroke-linecap="round" stroke-linejoin="round"/>
<path d="M710.677 486.705C715.619 489.582 728.361 516.726 720.93 570.589C713.499 624.452 691.223 729.8 687.48 745.916C683.737 762.033 670.663 800.775 670.663 800.775C670.663 800.775 665.684 783.958 641.712 792.92C641.508 792.997 641.287 793.018 641.073 792.981C640.858 792.943 640.658 792.849 640.492 792.708C640.326 792.567 640.201 792.383 640.13 792.177C640.06 791.971 640.045 791.75 640.089 791.537L645.381 764.08C645.381 764.08 645.75 743.999 647.465 738.964C653.974 720.008 657.238 646.765 659.396 636.53C661.553 626.296 657.312 596.903 657.312 596.903C657.312 596.903 627.236 668.819 626.259 675.937C625.282 683.054 606.934 712.411 606.934 712.411L603.689 739.444C603.689 739.444 579.274 781.266 574.977 793.75L545.916 787.388L546.727 766.717L554.546 764.024L568.228 717.021C572.569 700.733 577.89 684.723 584.161 669.077C590.633 652.739 608.981 589.435 608.981 589.435C614.679 583.239 620.045 548.977 620.045 548.977L628.804 505.809L710.677 486.705Z" fill="#212529"/>
<path d="M588.642 372.488L528.896 417.481L490.504 356.832L476.121 358.676C476.121 358.676 504.758 436.899 520.598 444.699C536.438 452.499 596.202 409.239 596.202 409.239" fill="#F9F9F7"/>
<path d="M588.642 372.488L528.896 417.481L490.504 356.832L476.121 358.676C476.121 358.676 504.758 436.899 520.598 444.699C536.438 452.499 596.202 409.239 596.202 409.239" stroke="#212529" stroke-linecap="round" stroke-linejoin="round"/>
<path d="M601.771 363.489C601.771 363.489 584.474 369.519 572.875 379.569C561.277 389.619 542.781 404.629 542.781 404.629C542.781 404.629 553.2 429.652 565.296 439.849L591.112 429.523L601.771 363.489Z" fill="#6489D1"/>
<mask id="mask2_240_4833" style="mask-type:luminance" maskUnits="userSpaceOnUse" x="542" y="363" width="60" height="77">
<path d="M601.771 363.489C601.771 363.489 584.474 369.519 572.875 379.569C561.277 389.619 542.781 404.629 542.781 404.629C542.781 404.629 553.2 429.652 565.296 439.849L591.112 429.523L601.771 363.489Z" fill="white"/>
</mask>
<g mask="url(#mask2_240_4833)">
<path opacity="0.4" d="M565.131 439.72L574.572 431.33C568.044 429.136 567.288 415.822 570.884 419.658C573.666 422.189 577.06 423.949 580.731 424.765C577.868 416.531 576.897 407.758 577.891 399.097C579.905 404.872 581.562 410.765 582.852 416.744C584.05 422.645 588.384 426.609 590.228 428.712L601.679 363.489C601.679 363.489 584.382 369.519 572.783 379.569C561.185 389.619 542.689 404.629 542.689 404.629C542.689 404.629 553.2 429.339 565.131 439.72Z" fill="#F9F9F7"/>
</g>
<path d="M601.771 363.489C601.771 363.489 584.474 369.519 572.875 379.569C561.277 389.619 542.781 404.629 542.781 404.629C542.781 404.629 553.2 429.652 565.296 439.849L591.112 429.523L601.771 363.489Z" stroke="#212529" stroke-linecap="round" stroke-linejoin="round"/>
<path d="M591.057 429.523C601.107 454.122 616.873 484.843 616.873 484.843L623.825 519.123C623.825 519.123 649.936 539.02 679.883 530.666C714.919 520.893 720.654 498.71 720.654 498.71L707.303 471.861C702.73 446.045 696.755 385.193 676.195 371.197C655.634 357.201 620.34 356.076 606.123 361.719C593.454 366.735 586.429 370.552 582.98 375.18" fill="#6489D1"/>
<mask id="mask3_240_4833" style="mask-type:luminance" maskUnits="userSpaceOnUse" x="582" y="358" width="139" height="175">
<path d="M591.057 429.523C601.107 454.122 616.873 484.843 616.873 484.843L623.825 519.123C623.825 519.123 649.936 539.02 679.883 530.666C714.919 520.893 720.654 498.71 720.654 498.71L707.303 471.861C702.73 446.045 696.755 385.193 676.195 371.197C655.634 357.201 620.34 356.076 606.123 361.719C593.454 366.735 586.429 370.552 582.98 375.18" fill="white"/>
</mask>
<g mask="url(#mask3_240_4833)">
<path opacity="0.4" d="M700.48 507.1C668.819 517.334 672.322 510.013 679.569 497.253C686.115 485.709 681.413 472.23 681.579 468.597C680.159 471.4 674.775 479.661 668.099 482.777C659.506 486.926 662.567 488.309 670.091 473.908C674.874 464.267 678.074 453.919 679.569 443.261C671.124 434.87 664.467 414.402 664.467 414.402L692.127 397.456C688.051 385.599 682.907 375.899 676.102 371.326C655.523 357.404 620.248 356.205 606.03 361.848C593.362 366.864 586.336 370.681 582.888 375.309L591.039 429.615C601.088 454.214 616.855 484.935 616.855 484.935L623.807 519.215C623.807 519.215 649.918 539.112 679.864 530.758C714.9 520.985 720.635 498.802 720.635 498.802L720.137 497.769C714.01 501.706 707.404 504.842 700.48 507.1Z" fill="#F9F9F7"/>
</g>
<path d="M591.057 429.523C601.107 454.122 616.873 484.843 616.873 484.843L623.825 519.123C623.825 519.123 649.936 539.019 679.883 530.666C714.919 520.893 720.654 498.71 720.654 498.71L707.303 471.861C702.73 446.045 696.755 385.193 676.195 371.197C655.634 357.201 620.34 356.076 606.123 361.719C593.454 366.735 586.429 370.552 582.98 375.18" stroke="#212529" stroke-linecap="round" stroke-linejoin="round"/>
<path d="M639.333 366.513C639.333 366.513 631.625 380.823 617.924 379.421C606.528 378.297 606.86 369.114 606.86 369.114C608.49 367.747 609.682 365.933 610.29 363.895C610.61 362.801 610.729 361.657 610.641 360.52C610.456 357.681 609.018 354.214 605.109 350.249L604.924 350.065C604.138 349.302 603.461 348.433 602.914 347.483C596.626 336.419 618.57 323.899 635.129 333.1C635.092 333.174 622.258 343.076 639.333 366.513Z" fill="#F9F9F7" stroke="#212529" stroke-linecap="round" stroke-linejoin="round"/>
<path d="M615.14 347.096C615.14 347.096 614.826 355.708 610.64 360.594C610.456 357.754 609.018 354.288 605.108 350.323C606.354 348.957 607.935 347.941 609.695 347.375C611.454 346.809 613.331 346.713 615.14 347.096Z" fill="#212529"/>
<path d="M637.692 322.534C643.888 295.925 631.035 284.4 622.608 280.896C609.11 275.364 591.555 284.105 587.572 298.875C583.589 313.646 587.166 317.039 586.982 323.087C586.853 327.328 584.234 329.412 587.13 340.052C588.974 347.078 592.182 358.344 604.205 356.335C607.883 355.677 611.452 354.511 614.808 352.868" fill="#F9F9F7"/>
<path d="M637.692 322.534C643.888 295.925 631.035 284.4 622.608 280.896C609.11 275.364 591.555 284.105 587.572 298.875C583.589 313.646 587.166 317.039 586.982 323.087C586.853 327.328 584.234 329.412 587.13 340.052C588.974 347.078 592.182 358.344 604.205 356.335C607.883 355.677 611.452 354.511 614.808 352.868" stroke="#212529" stroke-linecap="round" stroke-linejoin="round"/>
<path d="M602.656 313.886C602.656 313.886 607.635 312.042 610.309 317.887" stroke="#212529" stroke-linecap="round" stroke-linejoin="round"/>
<path d="M585.673 310.788C585.673 310.788 590.891 309.663 593.049 313.443" stroke="#212529" stroke-linecap="round" stroke-linejoin="round"/>
<path d="M594.45 320.985C594.45 320.985 589.306 329.873 589.398 331.09C589.656 334.889 594.487 333.174 594.487 333.174" stroke="#212529" stroke-linecap="round" stroke-linejoin="round"/>
<path d="M603.633 322.202C603.633 323.437 604.186 324.452 604.869 324.452C605.551 324.452 606.123 323.437 606.123 322.202C606.123 320.966 605.569 319.971 604.869 319.971C604.168 319.971 603.633 320.966 603.633 322.202Z" fill="#212529" stroke="#212529" stroke-linecap="round" stroke-linejoin="round"/>
<path d="M589.398 320.985C589.398 322.221 589.951 323.216 590.633 323.216C591.315 323.216 591.869 322.221 591.869 320.985C591.869 319.75 591.315 318.735 590.633 318.735C589.951 318.735 589.398 319.75 589.398 320.985Z" fill="#212529" stroke="#212529" stroke-linecap="round" stroke-linejoin="round"/>
<path d="M603.633 336.825C600.412 338.552 596.705 339.15 593.104 338.521" stroke="#212529" stroke-linecap="round" stroke-linejoin="round"/>
<path d="M602.656 337.839C602.496 338.92 601.995 339.922 601.225 340.699C600.455 341.475 599.458 341.985 598.378 342.154C597.901 342.222 597.414 342.188 596.951 342.054C596.488 341.92 596.058 341.69 595.691 341.378C595.323 341.066 595.026 340.68 594.818 340.245C594.611 339.81 594.498 339.335 594.487 338.853" stroke="#212529" stroke-linecap="round" stroke-linejoin="round"/>
<path d="M637.729 288.568C637.729 288.568 636.917 274.313 610.364 274.756C583.81 275.199 575.973 295.833 589.453 301.42C602.933 307.008 611.286 304.555 611.286 304.555C607.632 303.231 604.376 300.997 601.826 298.064C607.217 301.186 613.012 303.551 619.049 305.09C619.049 305.09 616.025 309.054 619.049 315.693C622.073 322.331 620.598 325.171 620.598 325.171C620.598 325.171 632.787 328.619 630.759 341.767C630.759 341.767 641.952 341.546 646.488 315.767C651.024 289.987 637.729 288.568 637.729 288.568Z" fill="#212529"/>
<path d="M622.608 327.199C622.608 327.199 627.476 318.108 632.584 320.321C637.692 322.534 634.133 333.395 629.708 336.917C625.282 340.439 622.608 336.917 622.608 336.917" fill="#F9F9F7"/>
<path d="M622.608 327.199C622.608 327.199 627.476 318.108 632.584 320.321C637.692 322.534 634.133 333.395 629.708 336.917C625.282 340.439 622.608 336.917 622.608 336.917" stroke="#212529" stroke-linecap="round" stroke-linejoin="round"/>
<path d="M577.947 399.097C580.915 411.064 582.464 420.487 591.057 429.523" stroke="#212529" stroke-linecap="round" stroke-linejoin="round"/>
<path d="M576.084 389.582C576.324 391.426 576.656 393.27 577.043 395.114" stroke="#212529" stroke-linecap="round" stroke-linejoin="round"/>
<path d="M679.569 422.036C679.569 422.036 715.159 460.502 723.825 459.064C732.492 457.625 737.121 443.427 735.203 439.499C733.285 435.571 701.292 398.304 701.292 398.304L679.569 422.036Z" fill="#F9F9F7" stroke="#212529" stroke-linecap="round" stroke-linejoin="round"/>
<path d="M666.329 385.875C662.863 397.954 661.406 410.954 667.178 421.077C670.073 429.744 686.908 438.005 692.68 445.234C710.807 440.808 718.496 417.795 718.496 417.795C718.496 417.795 708.096 402.914 697.511 387.24C686.927 371.566 666.016 365.757 666.016 365.757" fill="#6489D1"/>
<mask id="mask4_240_4833" style="mask-type:luminance" maskUnits="userSpaceOnUse" x="663" y="365" width="56" height="81">
<path d="M666.329 385.875C662.863 397.954 661.406 410.954 667.178 421.077C670.073 429.744 686.908 438.005 692.68 445.234C710.807 440.808 718.496 417.795 718.496 417.795C718.496 417.795 708.096 402.914 697.511 387.24C686.927 371.566 666.016 365.757 666.016 365.757" fill="white"/>
</mask>
<g mask="url(#mask4_240_4833)">
<path opacity="0.4" d="M666.329 385.875C662.863 397.954 661.406 410.954 667.178 421.077C670.073 429.744 686.908 438.005 692.68 445.234C710.807 440.808 718.496 417.795 718.496 417.795C718.496 417.795 708.096 402.914 697.511 387.24C686.927 371.566 666.016 365.757 666.016 365.757" fill="#F9F9F7"/>
</g>
<path d="M666.329 385.875C662.863 397.954 661.406 410.954 667.178 421.077C670.073 429.744 686.908 438.005 692.68 445.234C710.807 440.808 718.496 417.795 718.496 417.795C718.496 417.795 708.096 402.914 697.511 387.24C686.927 371.566 666.016 365.757 666.016 365.757" stroke="#212529" stroke-linecap="round" stroke-linejoin="round"/>
<path d="M490.891 357.515C490.891 357.515 484.972 343.629 481.284 339.296C477.596 334.962 473.908 331.92 472.875 331.772C470.312 331.477 461.959 336.106 461.959 336.106C461.959 336.106 461.959 338.724 466.477 338.337C466.477 338.337 459.949 342.412 459.635 345.602C459.322 348.792 463.323 353.31 464.172 355.062C464.238 355.298 464.361 355.514 464.529 355.693C464.697 355.872 464.905 356.008 465.137 356.089C465.368 356.17 465.615 356.195 465.858 356.161C466.101 356.126 466.332 356.034 466.532 355.892C466.532 355.892 473.576 365.481 480.38 366.144" fill="#F9F9F7"/>
<path d="M490.891 357.515C490.891 357.515 484.972 343.629 481.284 339.296C477.596 334.962 473.908 331.92 472.875 331.772C470.312 331.477 461.959 336.106 461.959 336.106C461.959 336.106 461.959 338.724 466.477 338.337C466.477 338.337 459.949 342.412 459.635 345.602C459.322 348.792 463.323 353.31 464.172 355.062C464.238 355.298 464.361 355.514 464.529 355.693C464.697 355.872 464.905 356.008 465.137 356.089C465.368 356.17 465.615 356.195 465.858 356.161C466.101 356.126 466.332 356.034 466.532 355.892C466.532 355.892 473.576 365.481 480.38 366.144" stroke="#212529" stroke-linecap="round" stroke-linejoin="round"/>
<path d="M466.532 355.892C467.135 355.153 467.461 354.227 467.454 353.274C467.454 353.274 470.275 353.274 470.423 350.803C470.423 350.803 474.572 351.061 472.838 345.787" stroke="#212529" stroke-linecap="round" stroke-linejoin="round"/>
<path d="M470.404 350.747C470.404 350.747 465.702 345.695 465.426 343.74" stroke="#212529" stroke-linecap="round" stroke-linejoin="round"/>
<path d="M467.435 353.218C467.435 353.218 462.272 348.608 462.549 346.524" stroke="#212529" stroke-linecap="round" stroke-linejoin="round"/>
<path d="M472.064 335.239C471.437 336.014 470.66 336.654 469.778 337.119C468.897 337.585 467.931 337.868 466.938 337.95" stroke="#212529" stroke-linecap="round" stroke-linejoin="round"/>
<path d="M470.976 336.382C471.849 337.069 472.652 337.842 473.373 338.687" stroke="#212529" stroke-linecap="round" stroke-linejoin="round"/>
<path d="M668.1 382.058C669.214 380.144 670.746 378.505 672.581 377.264" stroke="#212529" stroke-linecap="round" stroke-linejoin="round"/>
<path d="M631.736 812.559H672.802L671.917 815.675H631.773L631.736 812.559Z" fill="#F9F9F7" stroke="#212529" stroke-linecap="round" stroke-linejoin="round"/>
<path d="M644.92 800.407C644.92 800.407 658.4 795.944 664.909 801.531" stroke="#212529" stroke-linecap="round" stroke-linejoin="round"/>
<path d="M644.92 797.456C644.92 797.456 656.777 793.768 664.909 798.728" stroke="#212529" stroke-linecap="round" stroke-linejoin="round"/>
<path d="M645.621 794.561C645.621 794.561 656.777 790.357 664.909 796.11" stroke="#212529" stroke-linecap="round" stroke-linejoin="round"/>
<path d="M636.77 800.775L638.116 802.085C638.295 802.263 638.407 802.498 638.434 802.75C638.461 803.002 638.401 803.255 638.264 803.468C636.476 806.163 635.52 809.324 635.516 812.559H633.543C633.98 809.404 634.94 806.344 636.383 803.504L635.369 802.49L636.77 800.775Z" fill="#212529"/>
<path d="M683.737 465.057C681.413 468.302 649.844 506.418 635.092 504.352" stroke="#212529" stroke-linecap="round" stroke-linejoin="round"/>
<path d="M601.771 432.473C601.771 432.473 619.4 459.654 647.373 459.101" stroke="#212529" stroke-linecap="round" stroke-linejoin="round"/>
<g opacity="0.2">
<path d="M647.373 566.827C648.996 567.196 679.993 578.5 686.189 589.803" stroke="#F9F9F7" stroke-linecap="round" stroke-linejoin="round"/>
<path d="M654.915 583.239C653.366 585.433 640.163 626.646 634.631 637.95C629.099 649.254 610.032 699.964 605.662 702.877C605.662 702.877 599.816 732.381 596.165 737.157C592.514 741.933 573.65 779.68 573.65 779.68" stroke="#F9F9F7" stroke-linecap="round" stroke-linejoin="round"/>
<path d="M552.426 779.68L575.31 784.585" stroke="#F9F9F7" stroke-linecap="round" stroke-linejoin="round"/>
<path d="M645.621 782.133C645.621 782.133 663.932 780.491 670.147 787.462" stroke="#F9F9F7" stroke-linecap="round" stroke-linejoin="round"/>
<path d="M666.791 587.978C668.321 596.737 691.297 645.252 696.774 639.776" stroke="#F9F9F7" stroke-linecap="round" stroke-linejoin="round"/>
<path d="M657.884 592.366C657.884 592.366 655.192 580.325 657.736 574.848C658.714 572.765 638.043 579.956 631.109 578.315" stroke="#F9F9F7" stroke-linecap="round" stroke-linejoin="round"/>
<path d="M654.915 532.75C654.915 532.75 658.603 543.113 659.415 546.396C660.226 549.678 652.776 562.42 654.915 565.002" stroke="#F9F9F7" stroke-linecap="round" stroke-linejoin="round"/>
<path d="M705.164 523.051C705.164 523.051 710.272 530.869 710.272 536.641C710.272 542.413 717.187 544.939 717.187 544.939" stroke="#F9F9F7" stroke-linecap="round" stroke-linejoin="round"/>
<path d="M716.044 514.476C719.867 531.668 720.256 549.447 717.187 566.79C712.079 595.612 703.707 654.325 700.425 669.28C697.143 684.234 689.472 717.795 689.472 722.534C689.472 727.273 681.782 754.27 681.782 754.27" stroke="#F9F9F7" stroke-linecap="round" stroke-linejoin="round"/>
<path d="M683.645 713.462C682.538 713.462 662.125 733.156 657.017 733.506" stroke="#F9F9F7" stroke-linecap="round" stroke-linejoin="round"/>
<path d="M594.266 701.421C593.178 701.789 576.029 710.18 575.31 707.616" stroke="#F9F9F7" stroke-linecap="round" stroke-linejoin="round"/>
</g>
<path d="M680.159 549.198C677.991 549.372 675.842 548.676 674.185 547.266C672.529 545.855 671.501 543.844 671.327 541.675L667.27 491.389C667.111 489.327 667.737 487.28 669.023 485.659C670.308 484.039 672.159 482.963 674.203 482.649L675.789 477.393C675.923 476.898 676.205 476.456 676.597 476.127C676.989 475.797 677.473 475.596 677.984 475.549L698.876 473.908C699.379 473.866 699.882 473.977 700.32 474.227C700.758 474.477 701.11 474.855 701.329 475.309L703.707 480.196L738.743 477.393C740.454 477.255 742.165 477.656 743.636 478.539C745.108 479.421 746.266 480.742 746.949 482.317" fill="#6489D1"/>
<mask id="mask5_240_4833" style="mask-type:luminance" maskUnits="userSpaceOnUse" x="667" y="473" width="80" height="77">
<path d="M680.159 549.198C677.991 549.372 675.842 548.676 674.185 547.266C672.529 545.855 671.501 543.844 671.327 541.675L667.27 491.389C667.111 489.327 667.737 487.28 669.023 485.659C670.308 484.039 672.159 482.963 674.203 482.649L675.789 477.393C675.923 476.898 676.205 476.456 676.597 476.127C676.989 475.797 677.473 475.596 677.984 475.549L698.876 473.908C699.379 473.866 699.882 473.977 700.32 474.227C700.758 474.477 701.11 474.855 701.329 475.309L703.707 480.196L738.743 477.393C740.454 477.255 742.165 477.656 743.636 478.539C745.108 479.421 746.266 480.742 746.949 482.317" fill="white"/>
</mask>
<g mask="url(#mask5_240_4833)">
<path opacity="0.3" d="M680.159 549.198C677.991 549.372 675.842 548.676 674.185 547.266C672.529 545.855 671.501 543.844 671.327 541.675L667.27 491.389C667.111 489.327 667.737 487.28 669.023 485.659C670.308 484.039 672.159 482.963 674.203 482.649L675.789 477.393C675.923 476.898 676.205 476.456 676.597 476.127C676.989 475.797 677.473 475.596 677.984 475.549L698.876 473.908C699.379 473.866 699.882 473.977 700.32 474.227C700.758 474.477 701.11 474.855 701.329 475.309L703.707 480.196L738.743 477.393C740.454 477.255 742.165 477.656 743.636 478.539C745.108 479.421 746.266 480.742 746.949 482.317" fill="#212529"/>
</g>
<path d="M680.159 549.198C677.991 549.372 675.842 548.676 674.185 547.266C672.529 545.855 671.501 543.844 671.327 541.675L667.27 491.389C667.111 489.327 667.737 487.28 669.023 485.659C670.308 484.039 672.159 482.963 674.203 482.649L675.789 477.393C675.923 476.898 676.205 476.456 676.597 476.127C676.989 475.797 677.473 475.596 677.984 475.549L698.876 473.908C699.379 473.866 699.882 473.977 700.32 474.227C700.758 474.477 701.11 474.855 701.329 475.309L703.707 480.196L738.743 477.393C740.454 477.255 742.165 477.656 743.636 478.539C745.108 479.421 746.266 480.742 746.949 482.317" stroke="#212529" stroke-linecap="round" stroke-linejoin="round"/>
<path d="M680.159 549.198L744.017 543.98C746.286 543.723 748.4 542.697 750.006 541.074C751.613 539.451 752.616 537.327 752.85 535.055L756.372 489.877C756.495 488.854 756.386 487.817 756.051 486.843C755.717 485.869 755.166 484.983 754.44 484.252C753.715 483.521 752.833 482.964 751.861 482.623C750.89 482.281 749.853 482.164 748.83 482.28L684.972 487.424C682.701 487.678 680.586 488.703 678.979 490.327C677.372 491.951 676.37 494.076 676.139 496.349L672.617 541.509C672.479 542.539 672.577 543.586 672.904 544.572C673.232 545.558 673.781 546.456 674.508 547.198C675.236 547.94 676.123 548.505 677.102 548.852C678.082 549.199 679.127 549.317 680.159 549.198Z" fill="#6489D1" stroke="#212529" stroke-linecap="round" stroke-linejoin="round"/>
<path d="M729.56 432.141C736.162 438.485 739.573 443.445 739.094 464.061C738.614 484.677 734.871 514.476 732.437 534.76L714.9 537.434C714.9 537.434 717.648 505.717 714.9 484.843C711.913 462.051 714.273 449.291 717.021 447.649" fill="#F9F9F7"/>
<path d="M729.56 432.141C736.162 438.485 739.573 443.445 739.094 464.061C738.614 484.677 734.871 514.476 732.437 534.76L714.9 537.434C714.9 537.434 717.648 505.717 714.9 484.843C711.913 462.051 714.273 449.291 717.021 447.649" stroke="#212529" stroke-linecap="round" stroke-linejoin="round"/>
<path d="M715.896 519.768C715.527 525.688 704.74 527.495 703.947 531.201C703.689 532.418 699.964 540.569 699.964 540.569C699.821 542.91 699.988 545.26 700.462 547.557C701.384 550.729 704.242 548.885 704.242 548.885L705.164 551.135C706.621 554.823 709.35 551.411 713.997 553.698C718.644 555.984 720.893 552.96 722.682 553.698C724.471 554.435 730.316 552.61 731.423 550.416C732.529 548.221 730.777 538.522 732.437 534.668C734.097 530.814 734.133 523.014 734.133 519.768" fill="#F9F9F7"/>
<path d="M715.896 519.768C715.527 525.688 704.74 527.495 703.947 531.201C703.689 532.418 699.964 540.569 699.964 540.569C699.821 542.91 699.988 545.26 700.462 547.557C701.384 550.729 704.242 548.885 704.242 548.885L705.164 551.135C706.621 554.823 709.35 551.411 713.997 553.698C718.644 555.984 720.893 552.96 722.682 553.698C724.471 554.435 730.316 552.61 731.423 550.416C732.529 548.221 730.777 538.522 732.437 534.668C734.096 530.814 734.133 523.014 734.133 519.768" stroke="#212529" stroke-linecap="round" stroke-linejoin="round"/>
<path d="M704.242 548.885C704.242 548.885 704.242 542.929 708.077 540.569L704.242 548.885Z" fill="#F9F9F7"/>
<path d="M704.242 548.885C704.242 548.885 704.242 542.929 708.077 540.569" stroke="#212529" stroke-linecap="round" stroke-linejoin="round"/>
<path d="M465.149 334.594H301.125V368.486H465.149V334.594Z" fill="#6C757D" stroke="#212529" stroke-linecap="round" stroke-linejoin="round"/>
<path d="M465.149 378.647H301.125V412.54H465.149V378.647Z" fill="#6C757D" stroke="#212529" stroke-linecap="round" stroke-linejoin="round"/>
<path d="M465.149 422.7H301.125V456.593H465.149V422.7Z" fill="#6C757D" stroke="#212529" stroke-linecap="round" stroke-linejoin="round"/>
<path d="M465.149 466.753H301.125V500.646H465.149V466.753Z" fill="#6C757D" stroke="#212529" stroke-linecap="round" stroke-linejoin="round"/>
<path d="M465.149 510.806H301.125V544.699H465.149V510.806Z" fill="#6C757D" stroke="#212529" stroke-linecap="round" stroke-linejoin="round"/>
<path d="M466.55 330.777H335.11C333.094 330.777 331.459 332.411 331.459 334.428V368.615C331.459 370.632 333.094 372.267 335.11 372.267H466.55C468.567 372.267 470.202 370.632 470.202 368.615V334.428C470.202 332.411 468.567 330.777 466.55 330.777Z" fill="#E9ECEF" stroke="#212529" stroke-linecap="round" stroke-linejoin="round"/>
<path d="M466.55 374.83H335.11C333.094 374.83 331.459 376.464 331.459 378.481V412.669C331.459 414.685 333.094 416.32 335.11 416.32H466.55C468.567 416.32 470.202 414.685 470.202 412.669V378.481C470.202 376.464 468.567 374.83 466.55 374.83Z" fill="#E9ECEF" stroke="#212529" stroke-linecap="round" stroke-linejoin="round"/>
<path d="M466.55 418.901H335.11C333.094 418.901 331.459 420.536 331.459 422.552V456.74C331.459 458.757 333.094 460.391 335.11 460.391H466.55C468.567 460.391 470.202 458.757 470.202 456.74V422.552C470.202 420.536 468.567 418.901 466.55 418.901Z" fill="#E9ECEF" stroke="#212529" stroke-linecap="round" stroke-linejoin="round"/>
<path d="M466.55 462.955H335.11C333.094 462.955 331.459 464.589 331.459 466.606V500.793C331.459 502.81 333.094 504.445 335.11 504.445H466.55C468.567 504.445 470.202 502.81 470.202 500.793V466.606C470.202 464.589 468.567 462.955 466.55 462.955Z" fill="#E9ECEF" stroke="#212529" stroke-linecap="round" stroke-linejoin="round"/>
<path d="M466.55 507.008H335.11C333.094 507.008 331.459 508.642 331.459 510.659V544.847C331.459 546.863 333.094 548.498 335.11 548.498H466.55C468.567 548.498 470.202 546.863 470.202 544.847V510.659C470.202 508.642 468.567 507.008 466.55 507.008Z" fill="#E9ECEF" stroke="#212529" stroke-linecap="round" stroke-linejoin="round"/>
<path d="M483.276 358.031C483.276 358.031 473.761 353.771 474.056 346.967C473.98 345.229 473.54 343.527 472.765 341.97C472.765 341.97 463.545 339.775 464.836 336.106L477.596 337.452C481.792 340.013 485.007 343.909 486.724 348.516" fill="#F9F9F7"/>
<path d="M483.276 358.031C483.276 358.031 473.761 353.771 474.056 346.967C473.98 345.229 473.54 343.527 472.765 341.97C472.765 341.97 463.545 339.775 464.836 336.106L477.596 337.452C481.792 340.013 485.007 343.909 486.724 348.516" stroke="#212529" stroke-linecap="round" stroke-linejoin="round"/>
<path d="M319.713 329.965H126.314V815.675H319.713V329.965Z" fill="#6C757D" stroke="#212529" stroke-linecap="round" stroke-linejoin="round"/>
<path d="M252.886 330.795H121.446C119.429 330.795 117.795 332.43 117.795 334.446V368.634C117.795 370.651 119.429 372.285 121.446 372.285H252.886C254.903 372.285 256.537 370.651 256.537 368.634V334.446C256.537 332.43 254.903 330.795 252.886 330.795Z" fill="#6C757D" stroke="#212529" stroke-linecap="round" stroke-linejoin="round"/>
<path d="M324.562 330.795H193.122C191.106 330.795 189.471 332.43 189.471 334.446V368.634C189.471 370.651 191.106 372.285 193.122 372.285H324.562C326.579 372.285 328.214 370.651 328.214 368.634V334.446C328.214 332.43 326.579 330.795 324.562 330.795Z" fill="#E9ECEF" stroke="#212529" stroke-linecap="round" stroke-linejoin="round"/>
<path d="M193.141 366.089V336.954C193.141 336.289 193.405 335.651 193.875 335.181C194.345 334.71 194.983 334.446 195.648 334.446H322.018C322.349 334.444 322.677 334.507 322.983 334.632C323.29 334.757 323.568 334.941 323.803 335.174C324.038 335.407 324.224 335.684 324.351 335.99C324.479 336.295 324.544 336.623 324.544 336.954V366.052C324.544 366.717 324.28 367.355 323.81 367.826C323.339 368.296 322.701 368.56 322.036 368.56H195.648C194.99 368.56 194.357 368.301 193.888 367.839C193.419 367.376 193.15 366.748 193.141 366.089Z" fill="#212529"/>
<path d="M273.059 355.154H203.762C202.418 355.154 201.328 356.244 201.328 357.588V364.632C201.328 365.977 202.418 367.067 203.762 367.067H273.059C274.404 367.067 275.494 365.977 275.494 364.632V357.588C275.494 356.244 274.404 355.154 273.059 355.154Z" fill="#6489D1" stroke="#212529" stroke-linecap="round" stroke-linejoin="round"/>
<path d="M287.572 342.025H218.274C216.93 342.025 215.84 343.115 215.84 344.459V351.503C215.84 352.848 216.93 353.937 218.274 353.937H287.572C288.916 353.937 290.006 352.848 290.006 351.503V344.459C290.006 343.115 288.916 342.025 287.572 342.025Z" fill="#6489D1" stroke="#212529" stroke-linecap="round" stroke-linejoin="round"/>
<path d="M252.886 551.079H121.446C119.429 551.079 117.795 552.714 117.795 554.73V588.918C117.795 590.935 119.429 592.569 121.446 592.569H252.886C254.903 592.569 256.537 590.935 256.537 588.918V554.73C256.537 552.714 254.903 551.079 252.886 551.079Z" fill="#6C757D" stroke="#212529" stroke-linecap="round" stroke-linejoin="round"/>
<path d="M324.562 551.079H193.122C191.106 551.079 189.471 552.714 189.471 554.73V588.918C189.471 590.935 191.106 592.569 193.122 592.569H324.562C326.579 592.569 328.214 590.935 328.214 588.918V554.73C328.214 552.714 326.579 551.079 324.562 551.079Z" fill="#E9ECEF" stroke="#212529" stroke-linecap="round" stroke-linejoin="round"/>
<path d="M290.006 568.524H207.653V575.107H290.006V568.524Z" fill="#6C757D" stroke="#212529" stroke-linecap="round" stroke-linejoin="round"/>
<path d="M304.463 571.824C304.463 572.485 304.267 573.13 303.9 573.679C303.534 574.228 303.012 574.655 302.403 574.908C301.793 575.161 301.122 575.227 300.474 575.098C299.827 574.969 299.232 574.651 298.765 574.184C298.298 573.718 297.981 573.123 297.852 572.476C297.723 571.828 297.789 571.157 298.042 570.547C298.294 569.937 298.722 569.416 299.271 569.049C299.82 568.683 300.465 568.487 301.125 568.487C302.01 568.487 302.859 568.838 303.485 569.464C304.111 570.09 304.463 570.939 304.463 571.824Z" fill="#6489D1" stroke="#212529" stroke-linecap="round" stroke-linejoin="round"/>
<path d="M316.338 571.824C316.338 572.485 316.142 573.13 315.776 573.679C315.409 574.228 314.888 574.655 314.278 574.908C313.668 575.161 312.997 575.227 312.349 575.098C311.702 574.969 311.107 574.651 310.64 574.184C310.174 573.718 309.856 573.123 309.727 572.476C309.598 571.828 309.664 571.157 309.917 570.547C310.17 569.937 310.597 569.416 311.146 569.049C311.695 568.683 312.34 568.487 313 568.487C313.886 568.487 314.735 568.838 315.361 569.464C315.986 570.09 316.338 570.939 316.338 571.824Z" fill="#6C757D" stroke="#212529" stroke-linecap="round" stroke-linejoin="round"/>
<path d="M258.842 570.718H210.658V572.912H258.842V570.718Z" fill="#6489D1"/>
<path d="M252.886 595.133H121.446C119.429 595.133 117.795 596.767 117.795 598.784V632.971C117.795 634.988 119.429 636.623 121.446 636.623H252.886C254.903 636.623 256.537 634.988 256.537 632.971V598.784C256.537 596.767 254.903 595.133 252.886 595.133Z" fill="#6C757D" stroke="#212529" stroke-linecap="round" stroke-linejoin="round"/>
<path d="M324.562 595.133H193.122C191.106 595.133 189.471 596.767 189.471 598.784V632.971C189.471 634.988 191.106 636.623 193.122 636.623H324.562C326.579 636.623 328.214 634.988 328.214 632.971V598.784C328.214 596.767 326.579 595.133 324.562 595.133Z" fill="#E9ECEF" stroke="#212529" stroke-linecap="round" stroke-linejoin="round"/>
<path d="M290.006 612.577H207.653V619.16H290.006V612.577Z" fill="#6C757D" stroke="#212529" stroke-linecap="round" stroke-linejoin="round"/>
<path d="M301.125 619.215C302.969 619.215 304.463 617.721 304.463 615.877C304.463 614.034 302.969 612.54 301.125 612.54C299.282 612.54 297.788 614.034 297.788 615.877C297.788 617.721 299.282 619.215 301.125 619.215Z" fill="#6489D1" stroke="#212529" stroke-linecap="round" stroke-linejoin="round"/>
<path d="M316.338 615.896C316.338 616.556 316.142 617.201 315.776 617.75C315.409 618.299 314.888 618.727 314.278 618.98C313.668 619.232 312.997 619.298 312.349 619.17C311.702 619.041 311.107 618.723 310.64 618.256C310.174 617.789 309.856 617.195 309.727 616.547C309.598 615.9 309.664 615.229 309.917 614.619C310.17 614.009 310.597 613.488 311.146 613.121C311.695 612.754 312.34 612.558 313 612.558C313.439 612.556 313.875 612.641 314.281 612.807C314.687 612.974 315.056 613.22 315.366 613.531C315.676 613.841 315.922 614.21 316.089 614.616C316.256 615.022 316.341 615.457 316.338 615.896Z" fill="#6C757D" stroke="#212529" stroke-linecap="round" stroke-linejoin="round"/>
<path d="M258.842 614.79H210.658V616.965H258.842V614.79Z" fill="#6489D1"/>
<path d="M252.886 639.186H121.446C119.429 639.186 117.795 640.82 117.795 642.837V677.024C117.795 679.041 119.429 680.676 121.446 680.676H252.886C254.903 680.676 256.537 679.041 256.537 677.024V642.837C256.537 640.82 254.903 639.186 252.886 639.186Z" fill="#6C757D" stroke="#212529" stroke-linecap="round" stroke-linejoin="round"/>
<path d="M324.562 639.186H193.122C191.106 639.186 189.471 640.82 189.471 642.837V677.024C189.471 679.041 191.106 680.676 193.122 680.676H324.562C326.579 680.676 328.214 679.041 328.214 677.024V642.837C328.214 640.82 326.579 639.186 324.562 639.186Z" fill="#E9ECEF" stroke="#212529" stroke-linecap="round" stroke-linejoin="round"/>
<path d="M290.006 656.63H207.653V663.213H290.006V656.63Z" fill="#6C757D" stroke="#212529" stroke-linecap="round" stroke-linejoin="round"/>
<path d="M301.125 663.268C302.969 663.268 304.463 661.774 304.463 659.931C304.463 658.087 302.969 656.593 301.125 656.593C299.282 656.593 297.788 658.087 297.788 659.931C297.788 661.774 299.282 663.268 301.125 663.268Z" fill="#6489D1" stroke="#212529" stroke-linecap="round" stroke-linejoin="round"/>
<path d="M316.338 659.931C316.342 660.591 316.149 661.239 315.785 661.79C315.42 662.341 314.9 662.772 314.291 663.027C313.681 663.283 313.009 663.351 312.361 663.225C311.712 663.098 311.116 662.782 310.647 662.316C310.178 661.85 309.859 661.255 309.728 660.607C309.598 659.959 309.663 659.287 309.915 658.676C310.167 658.065 310.595 657.543 311.144 657.175C311.693 656.808 312.34 656.611 313 656.611C313.882 656.611 314.729 656.96 315.354 657.582C315.979 658.204 316.333 659.049 316.338 659.931Z" fill="#6C757D" stroke="#212529" stroke-linecap="round" stroke-linejoin="round"/>
<path d="M258.842 658.843H210.658V661.019H258.842V658.843Z" fill="#6489D1"/>
<path d="M252.886 683.239H121.446C119.429 683.239 117.795 684.873 117.795 686.89V721.078C117.795 723.094 119.429 724.729 121.446 724.729H252.886C254.903 724.729 256.537 723.094 256.537 721.078V686.89C256.537 684.873 254.903 683.239 252.886 683.239Z" fill="#6C757D" stroke="#212529" stroke-linecap="round" stroke-linejoin="round"/>
<path d="M324.562 683.239H193.122C191.106 683.239 189.471 684.873 189.471 686.89V721.078C189.471 723.094 191.106 724.729 193.122 724.729H324.562C326.579 724.729 328.214 723.094 328.214 721.078V686.89C328.214 684.873 326.579 683.239 324.562 683.239Z" fill="#E9ECEF" stroke="#212529" stroke-linecap="round" stroke-linejoin="round"/>
<path d="M290.006 700.683H207.653V707.266H290.006V700.683Z" fill="#6C757D" stroke="#212529" stroke-linecap="round" stroke-linejoin="round"/>
<path d="M304.463 703.984C304.466 704.645 304.274 705.292 303.909 705.843C303.545 706.394 303.025 706.825 302.415 707.08C301.806 707.336 301.134 707.405 300.485 707.278C299.837 707.151 299.24 706.835 298.772 706.369C298.303 705.903 297.983 705.308 297.853 704.66C297.723 704.012 297.788 703.34 298.04 702.729C298.292 702.118 298.72 701.596 299.269 701.228C299.818 700.861 300.464 700.665 301.125 700.665C302.007 700.665 302.853 701.014 303.479 701.636C304.104 702.258 304.458 703.102 304.463 703.984Z" fill="#6489D1" stroke="#212529" stroke-linecap="round" stroke-linejoin="round"/>
<path d="M316.338 703.984C316.342 704.645 316.149 705.292 315.785 705.843C315.42 706.394 314.9 706.825 314.291 707.08C313.681 707.336 313.009 707.405 312.361 707.278C311.712 707.151 311.116 706.835 310.647 706.369C310.178 705.903 309.859 705.308 309.728 704.66C309.598 704.012 309.663 703.34 309.915 702.729C310.167 702.118 310.595 701.596 311.144 701.228C311.693 700.861 312.34 700.665 313 700.665C313.882 700.665 314.729 701.014 315.354 701.636C315.979 702.258 316.333 703.102 316.338 703.984Z" fill="#6C757D" stroke="#212529" stroke-linecap="round" stroke-linejoin="round"/>
<path d="M258.842 702.896H210.658V705.09H258.842V702.896Z" fill="#6489D1"/>
<path d="M252.886 727.292H121.446C119.429 727.292 117.795 728.927 117.795 730.943V765.131C117.795 767.147 119.429 768.782 121.446 768.782H252.886C254.903 768.782 256.537 767.147 256.537 765.131V730.943C256.537 728.927 254.903 727.292 252.886 727.292Z" fill="#6C757D" stroke="#212529" stroke-linecap="round" stroke-linejoin="round"/>
<path d="M324.562 727.292H193.122C191.106 727.292 189.471 728.927 189.471 730.943V765.131C189.471 767.147 191.106 768.782 193.122 768.782H324.562C326.579 768.782 328.214 767.147 328.214 765.131V730.943C328.214 728.927 326.579 727.292 324.562 727.292Z" fill="#E9ECEF" stroke="#212529" stroke-linecap="round" stroke-linejoin="round"/>
<path d="M290.006 744.755H207.653V751.338H290.006V744.755Z" fill="#6C757D" stroke="#212529" stroke-linecap="round" stroke-linejoin="round"/>
<path d="M301.125 751.374C302.969 751.374 304.463 749.88 304.463 748.037C304.463 746.194 302.969 744.699 301.125 744.699C299.282 744.699 297.788 746.194 297.788 748.037C297.788 749.88 299.282 751.374 301.125 751.374Z" fill="#6489D1" stroke="#212529" stroke-linecap="round" stroke-linejoin="round"/>
<path d="M316.338 748.037C316.342 748.698 316.149 749.345 315.785 749.896C315.42 750.448 314.9 750.878 314.291 751.134C313.681 751.389 313.009 751.458 312.361 751.331C311.712 751.205 311.116 750.888 310.647 750.422C310.178 749.956 309.859 749.361 309.728 748.713C309.598 748.065 309.663 747.393 309.915 746.782C310.167 746.172 310.595 745.649 311.144 745.282C311.693 744.914 312.34 744.718 313 744.718C313.882 744.718 314.729 745.067 315.354 745.689C315.979 746.311 316.333 747.155 316.338 748.037Z" fill="#6C757D" stroke="#212529" stroke-linecap="round" stroke-linejoin="round"/>
<path d="M258.842 746.949H210.658V749.125H258.842V746.949Z" fill="#6489D1"/>
<path d="M252.886 771.345H121.446C119.429 771.345 117.795 772.98 117.795 774.996V809.184C117.795 811.201 119.429 812.835 121.446 812.835H252.886C254.903 812.835 256.537 811.201 256.537 809.184V774.996C256.537 772.98 254.903 771.345 252.886 771.345Z" fill="#6C757D" stroke="#212529" stroke-linecap="round" stroke-linejoin="round"/>
<path d="M324.562 771.345H193.122C191.106 771.345 189.471 772.98 189.471 774.996V809.184C189.471 811.201 191.106 812.835 193.122 812.835H324.562C326.579 812.835 328.214 811.201 328.214 809.184V774.996C328.214 772.98 326.579 771.345 324.562 771.345Z" fill="#E9ECEF" stroke="#212529" stroke-linecap="round" stroke-linejoin="round"/>
<path d="M290.006 788.808H207.653V795.391H290.006V788.808Z" fill="#6C757D" stroke="#212529" stroke-linecap="round" stroke-linejoin="round"/>
<path d="M301.125 795.446C302.969 795.446 304.463 793.952 304.463 792.109C304.463 790.265 302.969 788.771 301.125 788.771C299.282 788.771 297.788 790.265 297.788 792.109C297.788 793.952 299.282 795.446 301.125 795.446Z" fill="#6489D1" stroke="#212529" stroke-linecap="round" stroke-linejoin="round"/>
<path d="M316.338 792.109C316.338 792.769 316.142 793.414 315.776 793.963C315.409 794.512 314.888 794.94 314.278 795.192C313.668 795.445 312.997 795.511 312.349 795.382C311.702 795.253 311.107 794.936 310.64 794.469C310.174 794.002 309.856 793.407 309.727 792.76C309.598 792.112 309.664 791.441 309.917 790.831C310.17 790.221 310.597 789.7 311.146 789.334C311.695 788.967 312.34 788.771 313 788.771C313.886 788.771 314.735 789.123 315.361 789.749C315.986 790.375 316.338 791.223 316.338 792.109Z" fill="#6C757D" stroke="#212529" stroke-linecap="round" stroke-linejoin="round"/>
<path d="M258.842 791.002H210.658V793.178H258.842V791.002Z" fill="#6489D1"/>
<path d="M252.886 507.008H121.446C119.429 507.008 117.795 508.642 117.795 510.659V544.847C117.795 546.863 119.429 548.498 121.446 548.498H252.886C254.903 548.498 256.537 546.863 256.537 544.847V510.659C256.537 508.642 254.903 507.008 252.886 507.008Z" fill="#6C757D" stroke="#212529" stroke-linecap="round" stroke-linejoin="round"/>
<path d="M324.562 507.008H193.122C191.106 507.008 189.471 508.642 189.471 510.659V544.847C189.471 546.863 191.106 548.498 193.122 548.498H324.562C326.579 548.498 328.214 546.863 328.214 544.847V510.659C328.214 508.642 326.579 507.008 324.562 507.008Z" fill="#E9ECEF" stroke="#212529" stroke-linecap="round" stroke-linejoin="round"/>
<path d="M193.141 542.302V513.185C193.141 512.52 193.405 511.882 193.875 511.412C194.345 510.941 194.983 510.677 195.648 510.677H322.018C322.688 510.677 323.33 510.943 323.804 511.417C324.278 511.891 324.544 512.534 324.544 513.204V542.302C324.544 542.967 324.28 543.605 323.81 544.075C323.339 544.545 322.701 544.81 322.036 544.81H195.648C194.983 544.81 194.345 544.545 193.875 544.075C193.405 543.605 193.141 542.967 193.141 542.302Z" fill="#212529"/>
<path d="M273.059 531.367H203.762C202.418 531.367 201.328 532.457 201.328 533.801V540.845C201.328 542.189 202.418 543.279 203.762 543.279H273.059C274.404 543.279 275.494 542.189 275.494 540.845V533.801C275.494 532.457 274.404 531.367 273.059 531.367Z" fill="#6489D1" stroke="#212529" stroke-linecap="round" stroke-linejoin="round"/>
<path d="M314.015 531.367H281.597C280.253 531.367 279.163 532.457 279.163 533.801V540.845C279.163 542.189 280.253 543.279 281.597 543.279H314.015C315.359 543.279 316.449 542.189 316.449 540.845V533.801C316.449 532.457 315.359 531.367 314.015 531.367Z" fill="#6489D1" stroke="#212529" stroke-linecap="round" stroke-linejoin="round"/>
<path d="M244.164 519.363H211.747C210.402 519.363 209.312 520.452 209.312 521.797V528.841C209.312 530.185 210.402 531.275 211.747 531.275H244.164C245.508 531.275 246.598 530.185 246.598 528.841V521.797C246.598 520.452 245.508 519.363 244.164 519.363Z" fill="#6489D1" stroke="#212529" stroke-linecap="round" stroke-linejoin="round"/>
<path d="M252.886 462.955H121.446C119.429 462.955 117.795 464.589 117.795 466.606V500.793C117.795 502.81 119.429 504.445 121.446 504.445H252.886C254.903 504.445 256.537 502.81 256.537 500.793V466.606C256.537 464.589 254.903 462.955 252.886 462.955Z" fill="#6C757D" stroke="#212529" stroke-linecap="round" stroke-linejoin="round"/>
<path d="M324.562 462.955H193.122C191.106 462.955 189.471 464.589 189.471 466.606V500.793C189.471 502.81 191.106 504.445 193.122 504.445H324.562C326.579 504.445 328.214 502.81 328.214 500.793V466.606C328.214 464.589 326.579 462.955 324.562 462.955Z" fill="#E9ECEF" stroke="#212529" stroke-linecap="round" stroke-linejoin="round"/>
<path d="M193.141 498.249V469.132C193.141 468.467 193.405 467.829 193.875 467.359C194.345 466.888 194.983 466.624 195.648 466.624H322.018C322.688 466.624 323.33 466.89 323.804 467.364C324.278 467.838 324.544 468.48 324.544 469.15V498.23C324.547 498.561 324.483 498.889 324.358 499.196C324.234 499.502 324.049 499.781 323.816 500.015C323.583 500.25 323.306 500.437 323 500.564C322.695 500.691 322.367 500.756 322.036 500.756H195.648C194.983 500.756 194.345 500.492 193.875 500.022C193.405 499.552 193.141 498.914 193.141 498.249Z" fill="#212529"/>
<path d="M274.184 487.314H241.767C240.423 487.314 239.333 488.404 239.333 489.748V496.792C239.333 498.136 240.423 499.226 241.767 499.226H274.184C275.529 499.226 276.618 498.136 276.618 496.792V489.748C276.618 488.404 275.529 487.314 274.184 487.314Z" fill="#6489D1" stroke="#212529" stroke-linecap="round" stroke-linejoin="round"/>
<path d="M314.015 487.314H281.597C280.253 487.314 279.163 488.404 279.163 489.748V496.792C279.163 498.136 280.253 499.226 281.597 499.226H314.015C315.359 499.226 316.449 498.136 316.449 496.792V489.748C316.449 488.404 315.359 487.314 314.015 487.314Z" fill="#6489D1" stroke="#212529" stroke-linecap="round" stroke-linejoin="round"/>
<path d="M235.055 487.314H202.637C201.293 487.314 200.203 488.404 200.203 489.748V496.792C200.203 498.136 201.293 499.226 202.637 499.226H235.055C236.399 499.226 237.489 498.136 237.489 496.792V489.748C237.489 488.404 236.399 487.314 235.055 487.314Z" fill="#6489D1" stroke="#212529" stroke-linecap="round" stroke-linejoin="round"/>
<path d="M264.227 474.553H231.809C230.465 474.553 229.375 475.643 229.375 476.987V484.031C229.375 485.376 230.465 486.465 231.809 486.465H264.227C265.571 486.465 266.661 485.376 266.661 484.031V476.987C266.661 475.643 265.571 474.553 264.227 474.553Z" fill="#6489D1" stroke="#212529" stroke-linecap="round" stroke-linejoin="round"/>
<path d="M252.886 418.901H121.446C119.429 418.901 117.795 420.536 117.795 422.552V456.74C117.795 458.757 119.429 460.391 121.446 460.391H252.886C254.903 460.391 256.537 458.757 256.537 456.74V422.552C256.537 420.536 254.903 418.901 252.886 418.901Z" fill="#6C757D" stroke="#212529" stroke-linecap="round" stroke-linejoin="round"/>
<path d="M324.562 418.901H193.122C191.106 418.901 189.471 420.536 189.471 422.552V456.74C189.471 458.757 191.106 460.391 193.122 460.391H324.562C326.579 460.391 328.214 458.757 328.214 456.74V422.552C328.214 420.536 326.579 418.901 324.562 418.901Z" fill="#E9ECEF" stroke="#212529" stroke-linecap="round" stroke-linejoin="round"/>
<path d="M193.14 454.196V425.079C193.138 424.748 193.201 424.42 193.326 424.113C193.451 423.807 193.635 423.528 193.868 423.294C194.102 423.059 194.379 422.872 194.684 422.745C194.99 422.618 195.317 422.552 195.648 422.552H322.018C322.688 422.552 323.33 422.819 323.804 423.292C324.278 423.766 324.544 424.409 324.544 425.079V454.159C324.546 454.49 324.483 454.818 324.358 455.124C324.233 455.43 324.049 455.709 323.816 455.944C323.583 456.179 323.306 456.365 323 456.492C322.695 456.619 322.367 456.685 322.036 456.685H195.648C194.986 456.685 194.351 456.423 193.881 455.957C193.412 455.491 193.145 454.857 193.14 454.196Z" fill="#212529"/>
<path d="M297.031 443.261H227.734C226.39 443.261 225.3 444.351 225.3 445.695V452.739C225.3 454.083 226.39 455.173 227.734 455.173H297.031C298.376 455.173 299.465 454.083 299.465 452.739V445.695C299.465 444.351 298.376 443.261 297.031 443.261Z" fill="#6489D1" stroke="#212529" stroke-linecap="round" stroke-linejoin="round"/>
<path d="M287.664 442.044H218.274C217.629 442.044 217.009 441.787 216.553 441.331C216.097 440.874 215.84 440.255 215.84 439.609V439.941C215.84 439.296 216.097 438.677 216.553 438.22C217.009 437.764 217.629 437.507 218.274 437.507H287.664C288.306 437.512 288.921 437.771 289.373 438.227C289.826 438.683 290.08 439.299 290.08 439.941V439.609C290.08 440.252 289.826 440.868 289.373 441.324C288.921 441.78 288.306 442.039 287.664 442.044Z" fill="#6489D1" stroke="#212529" stroke-linecap="round" stroke-linejoin="round"/>
<path d="M252.886 374.848H121.446C119.429 374.848 117.795 376.483 117.795 378.499V412.687C117.795 414.703 119.429 416.338 121.446 416.338H252.886C254.903 416.338 256.537 414.703 256.537 412.687V378.499C256.537 376.483 254.903 374.848 252.886 374.848Z" fill="#6C757D" stroke="#212529" stroke-linecap="round" stroke-linejoin="round"/>
<path d="M324.562 374.848H193.122C191.106 374.848 189.471 376.483 189.471 378.499V412.687C189.471 414.703 191.106 416.338 193.122 416.338H324.562C326.579 416.338 328.214 414.703 328.214 412.687V378.499C328.214 376.483 326.579 374.848 324.562 374.848Z" fill="#E9ECEF" stroke="#212529" stroke-linecap="round" stroke-linejoin="round"/>
<path d="M193.14 410.142V381.026C193.138 380.695 193.201 380.367 193.326 380.06C193.451 379.754 193.635 379.475 193.868 379.24C194.102 379.006 194.379 378.819 194.684 378.692C194.99 378.565 195.317 378.499 195.648 378.499H322.018C322.349 378.497 322.677 378.56 322.983 378.685C323.289 378.81 323.568 378.994 323.803 379.227C324.038 379.46 324.224 379.738 324.351 380.043C324.478 380.349 324.544 380.676 324.544 381.007V410.105C324.544 410.771 324.28 411.409 323.809 411.879C323.339 412.349 322.701 412.613 322.036 412.613H195.648C194.99 412.613 194.357 412.354 193.888 411.892C193.419 411.43 193.15 410.801 193.14 410.142Z" fill="#212529"/>
<path d="M309.939 399.208H240.642C239.298 399.208 238.208 400.297 238.208 401.642V408.686C238.208 410.03 239.298 411.12 240.642 411.12H309.939C311.284 411.12 312.373 410.03 312.373 408.686V401.642C312.373 400.297 311.284 399.208 309.939 399.208Z" fill="#6489D1" stroke="#212529" stroke-linecap="round" stroke-linejoin="round"/>
<path d="M287.572 386.078H255.154C253.81 386.078 252.72 387.168 252.72 388.512V395.556C252.72 396.901 253.81 397.99 255.154 397.99H287.572C288.916 397.99 290.006 396.901 290.006 395.556V388.512C290.006 387.168 288.916 386.078 287.572 386.078Z" fill="#6489D1" stroke="#212529" stroke-linecap="round" stroke-linejoin="round"/>
<path d="M125.687 357.091V367.067" stroke="#212529" stroke-linecap="round" stroke-linejoin="round"/>
<path d="M128.859 357.091V367.067" stroke="#212529" stroke-linecap="round" stroke-linejoin="round"/>
<path d="M132.012 357.091V367.067" stroke="#212529" stroke-linecap="round" stroke-linejoin="round"/>
<path d="M135.184 357.091V367.067" stroke="#212529" stroke-linecap="round" stroke-linejoin="round"/>
<path d="M138.337 357.091V367.067" stroke="#212529" stroke-linecap="round" stroke-linejoin="round"/>
<path d="M125.687 797.807V807.783" stroke="#212529" stroke-linecap="round" stroke-linejoin="round"/>
<path d="M128.859 797.807V807.783" stroke="#212529" stroke-linecap="round" stroke-linejoin="round"/>
<path d="M132.012 797.807V807.783" stroke="#212529" stroke-linecap="round" stroke-linejoin="round"/>
<path d="M135.184 797.807V807.783" stroke="#212529" stroke-linecap="round" stroke-linejoin="round"/>
<path d="M138.337 797.807V807.783" stroke="#212529" stroke-linecap="round" stroke-linejoin="round"/>
<path d="M125.687 753.735V763.711" stroke="#212529" stroke-linecap="round" stroke-linejoin="round"/>
<path d="M128.859 753.735V763.711" stroke="#212529" stroke-linecap="round" stroke-linejoin="round"/>
<path d="M132.012 753.735V763.711" stroke="#212529" stroke-linecap="round" stroke-linejoin="round"/>
<path d="M135.184 753.735V763.711" stroke="#212529" stroke-linecap="round" stroke-linejoin="round"/>
<path d="M138.337 753.735V763.711" stroke="#212529" stroke-linecap="round" stroke-linejoin="round"/>
<path d="M125.687 709.663V719.639" stroke="#212529" stroke-linecap="round" stroke-linejoin="round"/>
<path d="M128.859 709.663V719.639" stroke="#212529" stroke-linecap="round" stroke-linejoin="round"/>
<path d="M132.012 709.663V719.639" stroke="#212529" stroke-linecap="round" stroke-linejoin="round"/>
<path d="M135.184 709.663V719.639" stroke="#212529" stroke-linecap="round" stroke-linejoin="round"/>
<path d="M138.337 709.663V719.639" stroke="#212529" stroke-linecap="round" stroke-linejoin="round"/>
<path d="M125.687 665.592V675.568" stroke="#212529" stroke-linecap="round" stroke-linejoin="round"/>
<path d="M128.859 665.592V675.568" stroke="#212529" stroke-linecap="round" stroke-linejoin="round"/>
<path d="M132.012 665.592V675.568" stroke="#212529" stroke-linecap="round" stroke-linejoin="round"/>
<path d="M135.184 665.592V675.568" stroke="#212529" stroke-linecap="round" stroke-linejoin="round"/>
<path d="M138.337 665.592V675.568" stroke="#212529" stroke-linecap="round" stroke-linejoin="round"/>
<path d="M125.687 621.52V631.496" stroke="#212529" stroke-linecap="round" stroke-linejoin="round"/>
<path d="M128.859 621.52V631.496" stroke="#212529" stroke-linecap="round" stroke-linejoin="round"/>
<path d="M132.012 621.52V631.496" stroke="#212529" stroke-linecap="round" stroke-linejoin="round"/>
<path d="M135.184 621.52V631.496" stroke="#212529" stroke-linecap="round" stroke-linejoin="round"/>
<path d="M138.337 621.52V631.496" stroke="#212529" stroke-linecap="round" stroke-linejoin="round"/>
<path d="M125.687 577.448V587.425" stroke="#212529" stroke-linecap="round" stroke-linejoin="round"/>
<path d="M128.859 577.448V587.425" stroke="#212529" stroke-linecap="round" stroke-linejoin="round"/>
<path d="M132.012 577.448V587.425" stroke="#212529" stroke-linecap="round" stroke-linejoin="round"/>
<path d="M135.184 577.448V587.425" stroke="#212529" stroke-linecap="round" stroke-linejoin="round"/>
<path d="M138.337 577.448V587.425" stroke="#212529" stroke-linecap="round" stroke-linejoin="round"/>
<path d="M125.687 533.377V543.353" stroke="#212529" stroke-linecap="round" stroke-linejoin="round"/>
<path d="M128.859 533.377V543.353" stroke="#212529" stroke-linecap="round" stroke-linejoin="round"/>
<path d="M132.012 533.377V543.353" stroke="#212529" stroke-linecap="round" stroke-linejoin="round"/>
<path d="M135.184 533.377V543.353" stroke="#212529" stroke-linecap="round" stroke-linejoin="round"/>
<path d="M138.337 533.377V543.353" stroke="#212529" stroke-linecap="round" stroke-linejoin="round"/>
<path d="M125.687 489.305V499.281" stroke="#212529" stroke-linecap="round" stroke-linejoin="round"/>
<path d="M128.859 489.305V499.281" stroke="#212529" stroke-linecap="round" stroke-linejoin="round"/>
<path d="M132.012 489.305V499.281" stroke="#212529" stroke-linecap="round" stroke-linejoin="round"/>
<path d="M135.184 489.305V499.281" stroke="#212529" stroke-linecap="round" stroke-linejoin="round"/>
<path d="M138.337 489.305V499.281" stroke="#212529" stroke-linecap="round" stroke-linejoin="round"/>
<path d="M125.687 445.234V455.21" stroke="#212529" stroke-linecap="round" stroke-linejoin="round"/>
<path d="M128.859 445.234V455.21" stroke="#212529" stroke-linecap="round" stroke-linejoin="round"/>
<path d="M132.012 445.234V455.21" stroke="#212529" stroke-linecap="round" stroke-linejoin="round"/>
<path d="M135.184 445.234V455.21" stroke="#212529" stroke-linecap="round" stroke-linejoin="round"/>
<path d="M138.337 445.234V455.21" stroke="#212529" stroke-linecap="round" stroke-linejoin="round"/>
<path d="M125.687 401.162V411.138" stroke="#212529" stroke-linecap="round" stroke-linejoin="round"/>
<path d="M128.859 401.162V411.138" stroke="#212529" stroke-linecap="round" stroke-linejoin="round"/>
<path d="M132.012 401.162V411.138" stroke="#212529" stroke-linecap="round" stroke-linejoin="round"/>
<path d="M135.184 401.162V411.138" stroke="#212529" stroke-linecap="round" stroke-linejoin="round"/>
<path d="M138.337 401.162V411.138" stroke="#212529" stroke-linecap="round" stroke-linejoin="round"/>
</svg>
