<svg width="56" height="66" viewBox="0 0 56 66" fill="none" xmlns="http://www.w3.org/2000/svg">
<path d="M25.45 51.89C25.45 56.59 24.37 60.12 22.23 62.46C20.08 64.81 17.55 65.99 13.26 65.99C9.09001 65.99 5.97001 64.84 3.88001 62.56C1.80001 60.28 0.76001 56.82 0.76001 52.2V34.05H7.50001V52.3C7.50001 54.89 8.00001 56.82 9.01001 58.12C10.02 59.41 11.52 60.05 13.49 60.05C15.48 60.05 16.27 59.43 17.25 58.18C18.23 56.93 18.72 55.06 18.72 52.56V34.05H25.44L25.45 51.89Z" fill="#0C2D8A"/>
<path d="M55.03 65.62H47.34L42.1 55.23C42 55.04 41.9 54.77 41.8 54.42C41.71 54.07 41.6 53.64 41.49 53.14H41.41C41.34 53.37 41.25 53.68 41.14 54.04C41.02 54.41 40.88 54.82 40.7 55.29L35.44 65.62H27.71L37.22 49.82L28.52 34.05H36.42L40.78 43.63C40.95 43.99 41.1 44.4 41.26 44.84C41.41 45.28 41.56 45.76 41.7 46.27H41.78C41.88 45.93 42 45.54 42.15 45.09C42.3 44.64 42.49 44.12 42.72 43.54L47.57 34.05H54.78L45.83 49.7L55.03 65.62Z" fill="#0C2D8A"/>
<path d="M55.53 26.24V28.49C55.53 29.11 55.01 29.61 54.37 29.61H1.15C0.51 29.61 0 29.11 0 28.49V26.24C0 25.62 0.51 25.12 1.15 25.12H54.36C55 25.12 55.53 25.62 55.53 26.24Z" fill="#0C2D8A"/>
<path d="M12.29 15.19C11.97 14.61 11.58 14.06 11.13 13.55C10.68 13.04 10.19 12.69 9.67001 12.52V12.48C10.89 12.05 11.84 11.42 12.54 10.55C13.23 9.67 13.58 8.64 13.58 7.44C13.58 5.73 13.04 4.46 11.95 3.61C10.86 2.75 9.24001 2.33 7.10001 2.33H0.76001V20.4H4.67001V13.63H5.82001C6.34001 13.67 6.78001 13.88 7.18001 14.24C7.57001 14.61 7.96001 15.17 8.36001 15.9L10.79 20.4H15.25L12.29 15.19ZM8.64001 9.83C8.10001 10.36 7.39001 10.63 6.50001 10.63H4.67001V5.3H6.58001C7.54001 5.3 8.26001 5.52 8.74001 5.94C9.22001 6.37 9.45001 6.99 9.45001 7.82C9.45001 8.62 9.18001 9.29 8.64001 9.83Z" fill="#0C2D8A"/>
<path d="M23.31 20.68C21.82 20.68 20.54 20.38 19.47 19.77C18.4 19.16 17.58 18.3 17 17.19C16.42 16.07 16.13 14.75 16.13 13.23C16.13 11.74 16.42 10.43 17 9.31C17.58 8.19 18.39 7.31 19.45 6.68C20.5 6.05 21.74 5.74 23.16 5.74C24.12 5.74 25.01 5.89 25.83 6.2C26.66 6.51 27.38 6.96 28 7.57C28.62 8.18 29.1 8.94 29.45 9.86C29.8 10.78 29.97 11.86 29.97 13.09V14.19H17.73V11.7H26.17C26.17 11.12 26.04 10.61 25.79 10.16C25.54 9.71 25.19 9.36 24.75 9.11C24.31 8.86 23.79 8.73 23.21 8.73C22.6 8.73 22.06 8.87 21.59 9.15C21.12 9.43 20.76 9.8 20.49 10.27C20.22 10.74 20.09 11.26 20.09 11.83V14.2C20.09 14.92 20.22 15.54 20.49 16.06C20.76 16.58 21.13 16.98 21.62 17.27C22.11 17.55 22.69 17.69 23.36 17.69C23.81 17.69 24.21 17.63 24.58 17.5C24.95 17.37 25.27 17.19 25.53 16.93C25.79 16.68 25.99 16.37 26.13 16.01L29.84 16.26C29.65 17.15 29.27 17.93 28.69 18.59C28.11 19.25 27.36 19.77 26.45 20.14C25.55 20.5 24.5 20.68 23.31 20.68Z" fill="#0C2D8A"/>
<path d="M38.62 20.64C37.52 20.64 36.53 20.36 35.64 19.79C34.75 19.22 34.05 18.38 33.53 17.27C33.01 16.16 32.75 14.8 32.75 13.19C32.75 11.53 33.02 10.15 33.55 9.05C34.08 7.95 34.79 7.12 35.68 6.57C36.57 6.02 37.54 5.75 38.61 5.75C39.42 5.75 40.1 5.89 40.64 6.16C41.18 6.43 41.62 6.77 41.96 7.18C42.3 7.59 42.55 7.98 42.73 8.37H42.85V1.1H46.85V20.4H42.89V18.08H42.72C42.53 18.48 42.27 18.88 41.92 19.27C41.58 19.66 41.14 19.99 40.59 20.25C40.06 20.51 39.4 20.64 38.62 20.64ZM39.89 17.44C40.54 17.44 41.09 17.26 41.53 16.91C41.98 16.56 42.32 16.06 42.57 15.42C42.81 14.78 42.93 14.03 42.93 13.17C42.93 12.31 42.81 11.56 42.57 10.93C42.33 10.3 41.99 9.81 41.53 9.46C41.08 9.11 40.53 8.94 39.88 8.94C39.22 8.94 38.67 9.12 38.21 9.48C37.76 9.84 37.42 10.33 37.18 10.97C36.95 11.6 36.83 12.34 36.83 13.17C36.83 14.01 36.95 14.75 37.18 15.4C37.41 16.05 37.76 16.55 38.21 16.91C38.66 17.27 39.23 17.44 39.89 17.44Z" fill="#0C2D8A"/>
<path d="M52.59 4.06C51.99 4.06 51.48 3.86 51.06 3.47C50.64 3.08 50.42 2.6 50.42 2.04C50.42 1.48 50.63 1 51.06 0.6C51.49 0.2 52 0 52.59 0C53.19 0 53.7 0.2 54.12 0.59C54.54 0.99 54.76 1.46 54.76 2.02C54.76 2.58 54.55 3.06 54.12 3.46C53.7 3.86 53.19 4.06 52.59 4.06ZM50.58 20.4V5.93H54.59V20.4H50.58Z" fill="#0C2D8A"/>
</svg>
