<svg width="157" height="44" viewBox="0 0 157 44" fill="none" xmlns="http://www.w3.org/2000/svg">
<path d="M116.83 24.12C116.83 30.47 115.37 35.24 112.47 38.41C109.57 41.59 106.14 43.18 100.34 43.18C94.7 43.18 90.48 41.63 87.66 38.55C84.85 35.46 83.45 30.79 83.45 24.54V0H92.56V24.68C92.56 28.18 93.24 30.79 94.6 32.55C95.96 34.29 97.99 35.16 100.66 35.16C103.34 35.16 104.41 34.32 105.75 32.64C107.07 30.94 107.74 28.42 107.74 25.04V0H116.82L116.83 24.12Z" fill="#0C2D8A"/>
<path d="M156.82 42.68H146.42L139.33 28.63C139.2 28.37 139.06 28.01 138.93 27.53C138.81 27.05 138.66 26.47 138.52 25.8H138.41C138.31 26.12 138.19 26.53 138.05 27.02C137.89 27.52 137.7 28.08 137.45 28.72L130.33 42.68H119.87L132.73 21.31L120.97 0H131.65L137.54 12.95C137.77 13.44 137.98 13.99 138.18 14.58C138.39 15.18 138.58 15.82 138.78 16.52H138.89C139.02 16.06 139.19 15.53 139.39 14.92C139.6 14.31 139.85 13.62 140.16 12.82L146.7 0H156.45L144.37 21.16L156.82 42.68Z" fill="#0C2D8A"/>
<path d="M75.65 35.47V40.47C75.65 41.85 74.54 42.97 73.16 42.97H3.49C2.12 42.97 1 41.85 1 40.47V35.47C1 34.09 2.11 32.97 3.49 32.97H73.17C74.54 32.97 75.65 34.09 75.65 35.47Z" fill="#F9F9F7" stroke="#0C2D8A" stroke-width="0.5" stroke-miterlimit="10"/>
<path d="M9.82001 40.26L8.48001 38.91C8.74001 38.57 8.90001 38.14 8.90001 37.68C8.90001 36.58 8.00001 35.68 6.91001 35.68C5.81001 35.68 4.92001 36.58 4.92001 37.68C4.92001 38.79 5.81001 39.68 6.91001 39.68C7.37001 39.68 7.80001 39.53 8.13001 39.26L9.46001 40.61C9.51001 40.66 9.58001 40.68 9.64001 40.68C9.70001 40.68 9.77001 40.66 9.82001 40.61C9.91001 40.51 9.91001 40.36 9.82001 40.26ZM6.90001 39.24C6.04001 39.24 5.35001 38.54 5.35001 37.68C5.35001 36.82 6.05001 36.13 6.90001 36.13C7.76001 36.13 8.45001 36.82 8.45001 37.68C8.46001 38.54 7.76001 39.24 6.90001 39.24Z" fill="#0C2D8A" stroke="#0C2D8A" stroke-width="0.5" stroke-miterlimit="10"/>
<path d="M17.52 20.79C17.09 20 16.55 19.25 15.93 18.54C15.31 17.84 14.65 17.36 13.93 17.13V17.07C15.59 16.49 16.89 15.62 17.86 14.43C18.81 13.22 19.29 11.82 19.29 10.18C19.29 7.84 18.55 6.09 17.06 4.94C15.56 3.77 13.35 3.19 10.41 3.19H1.75V27.92H7.1V18.66H8.68C9.39 18.71 10 19 10.54 19.5C11.07 20 11.61 20.77 12.16 21.77L15.48 27.92H21.59L17.52 20.79ZM12.54 13.45C11.8 14.18 10.83 14.55 9.6 14.55H7.1V7.26H9.71C11.03 7.26 12.01 7.56 12.67 8.13C13.33 8.71 13.65 9.56 13.65 10.7C13.64 11.79 13.28 12.71 12.54 13.45Z" fill="#6489D1"/>
<path d="M32.61 28.31C30.57 28.31 28.82 27.89 27.35 27.07C25.88 26.25 24.76 25.06 23.96 23.54C23.17 22.01 22.77 20.21 22.77 18.12C22.77 16.08 23.16 14.29 23.96 12.76C24.75 11.22 25.87 10.02 27.31 9.16C28.75 8.3 30.44 7.87 32.38 7.87C33.69 7.87 34.91 8.08 36.04 8.5C37.17 8.92 38.16 9.54 39.01 10.38C39.86 11.21 40.52 12.26 40.99 13.52C41.46 14.78 41.7 16.25 41.7 17.94V19.45H24.97V16.05H36.53C36.53 15.26 36.36 14.56 36.01 13.95C35.67 13.34 35.19 12.86 34.58 12.51C33.97 12.16 33.27 11.99 32.47 11.99C31.64 11.99 30.9 12.18 30.26 12.56C29.62 12.94 29.12 13.45 28.76 14.09C28.4 14.73 28.21 15.44 28.21 16.22V19.46C28.21 20.44 28.39 21.29 28.76 22C29.12 22.71 29.64 23.26 30.31 23.65C30.98 24.04 31.78 24.23 32.7 24.23C33.31 24.23 33.87 24.14 34.38 23.97C34.89 23.8 35.32 23.54 35.68 23.2C36.04 22.86 36.32 22.43 36.5 21.94L41.58 22.28C41.32 23.5 40.8 24.56 40 25.47C39.21 26.38 38.18 27.08 36.93 27.59C35.68 28.05 34.24 28.31 32.61 28.31Z" fill="#6489D1"/>
<path d="M53.56 28.24C52.06 28.24 50.69 27.85 49.48 27.07C48.26 26.29 47.3 25.14 46.59 23.63C45.88 22.11 45.53 20.25 45.53 18.04C45.53 15.77 45.89 13.88 46.63 12.37C47.36 10.86 48.33 9.73 49.55 8.98C50.77 8.23 52.1 7.85 53.55 7.85C54.66 7.85 55.58 8.04 56.33 8.41C57.08 8.78 57.68 9.25 58.14 9.8C58.6 10.35 58.95 10.9 59.19 11.43H59.36V1.51H64.84V27.92H59.42V24.75H59.19C58.93 25.3 58.57 25.84 58.1 26.38C57.63 26.92 57.03 27.36 56.28 27.72C55.53 28.07 54.62 28.24 53.56 28.24ZM55.3 23.87C56.19 23.87 56.94 23.63 57.55 23.14C58.16 22.65 58.64 21.97 58.97 21.1C59.3 20.22 59.47 19.2 59.47 18.02C59.47 16.84 59.31 15.82 58.98 14.95C58.65 14.08 58.18 13.41 57.56 12.94C56.94 12.47 56.19 12.23 55.3 12.23C54.4 12.23 53.64 12.47 53.02 12.97C52.4 13.46 51.93 14.14 51.61 15.01C51.29 15.88 51.13 16.88 51.13 18.03C51.13 19.18 51.29 20.2 51.61 21.08C51.93 21.96 52.4 22.65 53.02 23.14C53.64 23.63 54.4 23.87 55.3 23.87Z" fill="#6489D1"/>
<path d="M72.69 5.56C71.87 5.56 71.18 5.29 70.59 4.75C70.01 4.21 69.72 3.56 69.72 2.79C69.72 2.03 70.01 1.37 70.6 0.82C71.18 0.27 71.88 0 72.69 0C73.51 0 74.21 0.27 74.79 0.81C75.37 1.35 75.66 2 75.66 2.77C75.66 3.53 75.37 4.19 74.79 4.74C74.2 5.29 73.5 5.56 72.69 5.56ZM69.93 27.92V8.11H75.42V27.92H69.93Z" fill="#6489D1"/>
</svg>
